<svg width="639" height="239" viewBox="0 0 639 239" fill="none" xmlns="http://www.w3.org/2000/svg">
<g clip-path="url(#clip0_1_51)">
<path d="M118.735 13C112.619 13.0079 106.757 15.5059 102.437 19.9447C98.1174 24.3835 95.6941 30.3996 95.7003 36.67C95.7056 42.9403 98.1399 48.9517 102.468 53.3822C106.796 57.8126 112.663 60.2993 118.779 60.2954C124.894 60.2922 130.758 57.7991 135.081 53.3643C139.404 48.9295 141.832 42.916 141.831 36.6462V36.6017C141.82 30.3319 139.38 24.3234 135.048 19.8975C130.717 15.4716 124.848 12.9906 118.732 13H118.735ZM42.6446 67.6204C38.5917 67.6442 34.4693 67.8757 30.6046 68.8729C28.057 69.5348 25.5934 70.6241 23.9925 72.3159C21.9834 74.435 21.7258 77.311 22.7072 79.7656C23.5814 81.9322 25.9379 83.5528 28.5636 84.4818C34.2088 86.4644 40.4821 86.8858 46.4196 88.1324C47.5139 88.4084 48.724 88.7112 49.4014 89.4769C50.1049 90.3881 49.6909 91.6436 48.5358 92.2164C46.6078 93.2226 44.1442 93.2285 41.8977 93.1959C39.8481 93.1068 37.5958 92.9317 35.9631 91.8781C34.7646 91.1212 34.5533 89.8331 34.8225 88.726H21.5926C21.5579 90.7918 21.9487 92.9495 23.4251 94.7214C24.6583 96.2351 26.6501 97.3036 28.7923 97.9447C32.217 98.9775 35.9255 99.2892 39.576 99.3842C44.5292 99.4702 49.5809 99.3189 54.3402 98.1673C57.1772 97.4579 59.9622 96.3123 61.7802 94.4543C65.0023 91.136 64.2438 85.8797 59.9564 83.3005C57.8228 82.0242 55.2666 81.2347 52.6611 80.7242C48.8485 79.914 44.9664 79.3204 41.1045 78.6674C39.7468 78.3973 38.3138 78.1569 37.1732 77.501C35.9805 76.845 35.8849 75.2957 37.1008 74.622C38.6728 73.7108 40.7658 73.7168 42.6475 73.7168C44.6306 73.7524 46.7873 73.88 48.42 74.8327C48.8138 75.0526 49.142 75.3781 49.3694 75.7744C49.5968 76.1706 49.7149 76.6227 49.7112 77.0825L62.2897 77.0528C62.2405 75.4204 61.9452 73.7197 60.7815 72.3099C59.4295 70.5736 57.0528 69.4784 54.6065 68.8373C50.7707 67.843 46.6744 67.6383 42.6475 67.6204H42.6446ZM69.9324 68.594L69.9266 99.4079H106.606V92.6913H83.3794V86.7107H104.093V80.1425H83.3794L83.3765 75.2393L105.766 75.2334L105.751 68.594H69.9324ZM130.364 68.6058L113.365 68.6088L113.362 99.4228H126.239L126.233 78.6882L143.872 99.4079L161.546 99.4257L161.54 68.6088L148.652 68.6118L148.666 89.1979L130.364 68.6058ZM184.506 68.6563C184.506 68.6563 170.624 89.2128 163.65 99.4762H177.167L180.409 93.9171H201.293L204.321 99.4791L219.335 99.4762L199.438 68.6622L184.506 68.6563ZM191.262 76.011L197.672 87.1737L184.422 87.1945L191.262 76.011ZM11 108.125L11.1158 124.894L72.257 124.675C75.3749 125.36 77.1842 127.444 76.5473 132.172L38.942 199.662L51.1934 211.4L109.434 108.122L11 108.125ZM127.666 108.267L184.94 211.106L197.596 199.442L159.557 132.13C158.92 127.384 160.729 125.28 163.85 124.592L225 124.814L224.983 108.318L127.666 108.267ZM118.003 125.283L64.293 219.803L78.5593 226.929L114.399 164.826C115.635 163.79 116.885 163.241 118.133 163.188C119.453 163.137 120.788 163.636 122.125 164.707L157.881 227L172.596 219.129L118.003 125.283Z" fill="white"/>
<path d="M328.37 54.2C336.77 54.2 344.143 55.6467 350.49 58.54C356.837 61.4333 362.25 65.7267 366.73 71.42L355.95 83.88C352.123 79.0267 347.923 75.48 343.35 73.24C338.87 70.9067 333.643 69.74 327.67 69.74C323.75 69.74 320.483 70.2533 317.87 71.28C315.35 72.3067 313.483 73.66 312.27 75.34C311.15 77.02 310.59 78.8867 310.59 80.94C310.59 83.46 311.57 85.6067 313.53 87.38C315.49 89.06 318.85 90.46 323.61 91.58L340.83 95.5C349.977 97.5533 356.51 100.633 360.43 104.74C364.443 108.753 366.45 113.98 366.45 120.42C366.45 126.487 364.863 131.713 361.69 136.1C358.517 140.393 354.083 143.707 348.39 146.04C342.697 148.28 336.163 149.4 328.79 149.4C322.35 149.4 316.423 148.653 311.01 147.16C305.69 145.573 300.93 143.427 296.73 140.72C292.53 138.013 289.03 134.887 286.23 131.34L297.15 118.32C299.297 121.307 301.957 123.967 305.13 126.3C308.303 128.633 311.897 130.5 315.91 131.9C320.017 133.207 324.31 133.86 328.79 133.86C332.617 133.86 335.837 133.44 338.45 132.6C341.157 131.667 343.163 130.407 344.47 128.82C345.87 127.14 346.57 125.133 346.57 122.8C346.57 120.373 345.73 118.32 344.05 116.64C342.463 114.867 339.477 113.513 335.09 112.58L316.33 108.38C310.917 107.073 306.25 105.393 302.33 103.34C298.503 101.193 295.563 98.4867 293.51 95.22C291.55 91.86 290.57 87.8933 290.57 83.32C290.57 77.8133 292.063 72.8667 295.05 68.48C298.037 64.0933 302.33 60.64 307.93 58.12C313.623 55.5067 320.437 54.2 328.37 54.2ZM411.048 55.6V148H391.728V55.6H411.048ZM482.807 55.6C493.261 55.6 501.474 58.12 507.447 63.16C513.421 68.2 516.407 74.9667 516.407 83.46C516.407 92.5133 513.421 99.4667 507.447 104.32C501.474 109.08 493.307 111.46 482.947 111.46L480.987 112.58H461.107V148H442.067V55.6H482.807ZM480.567 97.88C485.981 97.88 489.994 96.8067 492.607 94.66C495.314 92.42 496.667 89.0133 496.667 84.44C496.667 79.8667 495.314 76.5067 492.607 74.36C489.994 72.12 485.981 71 480.567 71H461.107V97.88H480.567ZM491.907 101.94L521.867 148H500.167L475.387 107.54L491.907 101.94ZM615.663 55.6V71.14H584.723V148H565.403V71.14H534.323V55.6H615.663Z" fill="white"/>
<path d="M295.228 167.95C296.128 167.95 296.918 168.105 297.598 168.415C298.278 168.725 298.858 169.185 299.338 169.795L298.183 171.13C297.773 170.61 297.323 170.23 296.833 169.99C296.353 169.74 295.793 169.615 295.153 169.615C294.733 169.615 294.383 169.67 294.103 169.78C293.833 169.89 293.633 170.035 293.503 170.215C293.383 170.395 293.323 170.595 293.323 170.815C293.323 171.085 293.428 171.315 293.638 171.505C293.848 171.685 294.208 171.835 294.718 171.955L296.563 172.375C297.543 172.595 298.243 172.925 298.663 173.365C299.093 173.795 299.308 174.355 299.308 175.045C299.308 175.695 299.138 176.255 298.798 176.725C298.458 177.185 297.983 177.54 297.373 177.79C296.763 178.03 296.063 178.15 295.273 178.15C294.583 178.15 293.948 178.07 293.368 177.91C292.798 177.74 292.288 177.51 291.838 177.22C291.388 176.93 291.013 176.595 290.713 176.215L291.883 174.82C292.113 175.14 292.398 175.425 292.738 175.675C293.078 175.925 293.463 176.125 293.893 176.275C294.333 176.415 294.793 176.485 295.273 176.485C295.683 176.485 296.028 176.44 296.308 176.35C296.598 176.25 296.813 176.115 296.953 175.945C297.103 175.765 297.178 175.55 297.178 175.3C297.178 175.04 297.088 174.82 296.908 174.64C296.738 174.45 296.418 174.305 295.948 174.205L293.938 173.755C293.358 173.615 292.858 173.435 292.438 173.215C292.028 172.985 291.713 172.695 291.493 172.345C291.283 171.985 291.178 171.56 291.178 171.07C291.178 170.48 291.338 169.95 291.658 169.48C291.978 169.01 292.438 168.64 293.038 168.37C293.648 168.09 294.378 167.95 295.228 167.95ZM301.447 169.42C301.017 169.42 300.697 169.33 300.487 169.15C300.277 168.96 300.172 168.685 300.172 168.325C300.172 167.955 300.277 167.68 300.487 167.5C300.697 167.31 301.017 167.215 301.447 167.215C301.877 167.215 302.197 167.31 302.407 167.5C302.617 167.68 302.722 167.955 302.722 168.325C302.722 168.685 302.617 168.96 302.407 169.15C302.197 169.33 301.877 169.42 301.447 169.42ZM302.467 170.5V178H300.412V170.5H302.467ZM307.046 178.15C306.286 178.15 305.591 178.015 304.961 177.745C304.341 177.475 303.836 177.095 303.446 176.605L304.631 175.405C304.871 175.765 305.191 176.06 305.591 176.29C305.991 176.52 306.466 176.635 307.016 176.635C307.406 176.635 307.716 176.58 307.946 176.47C308.186 176.35 308.306 176.165 308.306 175.915C308.306 175.755 308.251 175.62 308.141 175.51C308.031 175.39 307.811 175.295 307.481 175.225L306.161 174.955C305.291 174.775 304.671 174.505 304.301 174.145C303.941 173.775 303.761 173.3 303.761 172.72C303.761 172.31 303.881 171.925 304.121 171.565C304.371 171.205 304.741 170.915 305.231 170.695C305.721 170.465 306.331 170.35 307.061 170.35C307.811 170.35 308.461 170.47 309.011 170.71C309.571 170.94 310.011 171.285 310.331 171.745L309.101 172.945C308.881 172.595 308.591 172.33 308.231 172.15C307.881 171.96 307.511 171.865 307.121 171.865C306.841 171.865 306.601 171.895 306.401 171.955C306.201 172.015 306.051 172.1 305.951 172.21C305.851 172.31 305.801 172.44 305.801 172.6C305.801 172.76 305.871 172.9 306.011 173.02C306.151 173.13 306.406 173.225 306.776 173.305L308.306 173.62C309.046 173.77 309.576 174.025 309.896 174.385C310.216 174.735 310.376 175.16 310.376 175.66C310.376 176.14 310.246 176.57 309.986 176.95C309.736 177.32 309.361 177.615 308.861 177.835C308.371 178.045 307.766 178.15 307.046 178.15ZM314.07 168.205V175.555C314.07 175.915 314.16 176.18 314.34 176.35C314.53 176.51 314.785 176.59 315.105 176.59C315.355 176.59 315.575 176.555 315.765 176.485C315.955 176.405 316.125 176.3 316.275 176.17L316.605 177.535C316.365 177.725 316.065 177.875 315.705 177.985C315.345 178.095 314.965 178.15 314.565 178.15C314.065 178.15 313.62 178.075 313.23 177.925C312.85 177.775 312.55 177.535 312.33 177.205C312.12 176.875 312.015 176.435 312.015 175.885V168.775L314.07 168.205ZM316.47 170.5V172.03H310.635V170.5H316.47ZM320.74 178.15C319.95 178.15 319.26 177.995 318.67 177.685C318.09 177.375 317.64 176.93 317.32 176.35C317 175.77 316.84 175.07 316.84 174.25C316.84 173.43 317 172.73 317.32 172.15C317.64 171.57 318.085 171.125 318.655 170.815C319.235 170.505 319.895 170.35 320.635 170.35C321.395 170.35 322.04 170.505 322.57 170.815C323.1 171.115 323.505 171.53 323.785 172.06C324.065 172.58 324.205 173.175 324.205 173.845C324.205 174.045 324.2 174.235 324.19 174.415C324.18 174.595 324.165 174.755 324.145 174.895H318.16V173.47H323.245L322.255 173.83C322.255 173.2 322.11 172.715 321.82 172.375C321.54 172.035 321.14 171.865 320.62 171.865C320.24 171.865 319.91 171.955 319.63 172.135C319.36 172.315 319.155 172.585 319.015 172.945C318.875 173.295 318.805 173.74 318.805 174.28C318.805 174.81 318.88 175.25 319.03 175.6C319.19 175.94 319.41 176.195 319.69 176.365C319.98 176.535 320.325 176.62 320.725 176.62C321.165 176.62 321.52 176.535 321.79 176.365C322.06 176.195 322.27 175.96 322.42 175.66L324.055 176.29C323.895 176.68 323.65 177.015 323.32 177.295C323 177.575 322.615 177.79 322.165 177.94C321.725 178.08 321.25 178.15 320.74 178.15ZM325.346 178V170.5H327.191L327.266 171.85C327.516 171.35 327.856 170.975 328.286 170.725C328.726 170.475 329.211 170.35 329.741 170.35C330.281 170.35 330.766 170.475 331.196 170.725C331.636 170.975 331.966 171.345 332.186 171.835C332.346 171.505 332.561 171.23 332.831 171.01C333.101 170.79 333.401 170.625 333.731 170.515C334.061 170.405 334.396 170.35 334.736 170.35C335.226 170.35 335.671 170.45 336.071 170.65C336.481 170.85 336.806 171.15 337.046 171.55C337.286 171.95 337.406 172.46 337.406 173.08V178H335.351V173.485C335.351 172.935 335.231 172.545 334.991 172.315C334.751 172.085 334.441 171.97 334.061 171.97C333.761 171.97 333.481 172.045 333.221 172.195C332.971 172.345 332.771 172.57 332.621 172.87C332.481 173.16 332.411 173.525 332.411 173.965V178H330.356V173.485C330.356 172.935 330.231 172.545 329.981 172.315C329.741 172.085 329.431 171.97 329.051 171.97C328.791 171.97 328.531 172.04 328.271 172.18C328.021 172.32 327.811 172.54 327.641 172.84C327.481 173.14 327.401 173.535 327.401 174.025V178H325.346ZM343.201 173.215C343.201 172.785 343.076 172.45 342.826 172.21C342.586 171.97 342.266 171.85 341.866 171.85C341.496 171.85 341.171 171.945 340.891 172.135C340.611 172.325 340.406 172.64 340.276 173.08L338.521 172.54C338.691 171.88 339.061 171.35 339.631 170.95C340.211 170.55 340.986 170.35 341.956 170.35C342.616 170.35 343.191 170.455 343.681 170.665C344.171 170.865 344.551 171.17 344.821 171.58C345.101 171.99 345.241 172.505 345.241 173.125V176.17C345.241 176.55 345.421 176.74 345.781 176.74C345.951 176.74 346.111 176.715 346.261 176.665L346.141 177.94C345.881 178.07 345.556 178.135 345.166 178.135C344.816 178.135 344.501 178.075 344.221 177.955C343.941 177.835 343.721 177.655 343.561 177.415C343.401 177.165 343.321 176.855 343.321 176.485V176.425L343.681 176.365C343.621 176.745 343.456 177.07 343.186 177.34C342.916 177.6 342.586 177.8 342.196 177.94C341.816 178.08 341.421 178.15 341.011 178.15C340.501 178.15 340.061 178.075 339.691 177.925C339.321 177.765 339.036 177.535 338.836 177.235C338.636 176.935 338.536 176.565 338.536 176.125C338.536 175.565 338.716 175.11 339.076 174.76C339.436 174.4 339.951 174.155 340.621 174.025L343.441 173.455L343.426 174.73L341.626 175.09C341.286 175.16 341.026 175.255 340.846 175.375C340.676 175.485 340.591 175.67 340.591 175.93C340.591 176.18 340.681 176.37 340.861 176.5C341.051 176.63 341.276 176.695 341.536 176.695C341.746 176.695 341.951 176.67 342.151 176.62C342.351 176.57 342.531 176.49 342.691 176.38C342.851 176.27 342.976 176.12 343.066 175.93C343.156 175.74 343.201 175.51 343.201 175.24V173.215ZM353.54 178.15C352.92 178.15 352.365 177.995 351.875 177.685C351.395 177.375 351.015 176.93 350.735 176.35C350.465 175.77 350.33 175.075 350.33 174.265C350.33 173.435 350.475 172.73 350.765 172.15C351.055 171.56 351.445 171.115 351.935 170.815C352.435 170.505 352.995 170.35 353.615 170.35C354.275 170.35 354.82 170.54 355.25 170.92C355.68 171.3 355.96 171.79 356.09 172.39L355.895 172.63V167.215H357.95V178H356.105L355.97 175.72L356.225 175.84C356.155 176.31 355.995 176.72 355.745 177.07C355.495 177.41 355.18 177.675 354.8 177.865C354.42 178.055 354 178.15 353.54 178.15ZM354.14 176.575C354.5 176.575 354.81 176.485 355.07 176.305C355.33 176.115 355.53 175.84 355.67 175.48C355.82 175.12 355.895 174.69 355.895 174.19C355.895 173.71 355.825 173.305 355.685 172.975C355.545 172.635 355.345 172.375 355.085 172.195C354.825 172.015 354.52 171.925 354.17 171.925C353.61 171.925 353.17 172.125 352.85 172.525C352.54 172.915 352.385 173.49 352.385 174.25C352.385 175.01 352.54 175.59 352.85 175.99C353.16 176.38 353.59 176.575 354.14 176.575ZM362.989 178.15C362.199 178.15 361.509 177.995 360.919 177.685C360.339 177.375 359.889 176.93 359.569 176.35C359.249 175.77 359.089 175.07 359.089 174.25C359.089 173.43 359.249 172.73 359.569 172.15C359.889 171.57 360.334 171.125 360.904 170.815C361.484 170.505 362.144 170.35 362.884 170.35C363.644 170.35 364.289 170.505 364.819 170.815C365.349 171.115 365.754 171.53 366.034 172.06C366.314 172.58 366.454 173.175 366.454 173.845C366.454 174.045 366.449 174.235 366.439 174.415C366.429 174.595 366.414 174.755 366.394 174.895H360.409V173.47H365.494L364.504 173.83C364.504 173.2 364.359 172.715 364.069 172.375C363.789 172.035 363.389 171.865 362.869 171.865C362.489 171.865 362.159 171.955 361.879 172.135C361.609 172.315 361.404 172.585 361.264 172.945C361.124 173.295 361.054 173.74 361.054 174.28C361.054 174.81 361.129 175.25 361.279 175.6C361.439 175.94 361.659 176.195 361.939 176.365C362.229 176.535 362.574 176.62 362.974 176.62C363.414 176.62 363.769 176.535 364.039 176.365C364.309 176.195 364.519 175.96 364.669 175.66L366.304 176.29C366.144 176.68 365.899 177.015 365.569 177.295C365.249 177.575 364.864 177.79 364.414 177.94C363.974 178.08 363.499 178.15 362.989 178.15ZM372.615 169.42C372.185 169.42 371.865 169.33 371.655 169.15C371.445 168.96 371.34 168.685 371.34 168.325C371.34 167.955 371.445 167.68 371.655 167.5C371.865 167.31 372.185 167.215 372.615 167.215C373.045 167.215 373.365 167.31 373.575 167.5C373.785 167.68 373.89 167.955 373.89 168.325C373.89 168.685 373.785 168.96 373.575 169.15C373.365 169.33 373.045 169.42 372.615 169.42ZM373.635 170.5V178H371.58V170.5H373.635ZM375.214 178V170.5H377.059L377.179 172.75L376.924 172.51C377.044 172.02 377.234 171.615 377.494 171.295C377.754 170.975 378.069 170.74 378.439 170.59C378.819 170.43 379.234 170.35 379.684 170.35C380.204 170.35 380.664 170.45 381.064 170.65C381.474 170.85 381.794 171.155 382.024 171.565C382.264 171.965 382.384 172.47 382.384 173.08V178H380.329V173.665C380.329 173.025 380.204 172.585 379.954 172.345C379.704 172.095 379.379 171.97 378.979 171.97C378.699 171.97 378.424 172.04 378.154 172.18C377.894 172.31 377.679 172.525 377.509 172.825C377.349 173.125 377.269 173.525 377.269 174.025V178H375.214ZM387.187 167.065C387.537 167.065 387.852 167.105 388.132 167.185C388.422 167.255 388.637 167.345 388.777 167.455L388.492 168.82C388.382 168.75 388.257 168.695 388.117 168.655C387.977 168.615 387.812 168.595 387.622 168.595C387.232 168.595 386.922 168.685 386.692 168.865C386.462 169.035 386.347 169.33 386.347 169.75V170.785L386.437 171.19V178H384.382V169.6C384.382 169.18 384.452 168.81 384.592 168.49C384.732 168.17 384.927 167.905 385.177 167.695C385.427 167.485 385.722 167.33 386.062 167.23C386.412 167.12 386.787 167.065 387.187 167.065ZM388.717 170.5V172.03H383.077V170.5H388.717ZM392.639 170.35C393.399 170.35 394.064 170.505 394.634 170.815C395.214 171.125 395.664 171.57 395.984 172.15C396.314 172.73 396.479 173.43 396.479 174.25C396.479 175.06 396.314 175.76 395.984 176.35C395.664 176.93 395.214 177.375 394.634 177.685C394.064 177.995 393.399 178.15 392.639 178.15C391.889 178.15 391.224 177.995 390.644 177.685C390.064 177.375 389.609 176.93 389.279 176.35C388.959 175.76 388.799 175.06 388.799 174.25C388.799 173.43 388.959 172.73 389.279 172.15C389.609 171.57 390.064 171.125 390.644 170.815C391.224 170.505 391.889 170.35 392.639 170.35ZM392.639 171.88C392.259 171.88 391.934 171.97 391.664 172.15C391.404 172.32 391.204 172.58 391.064 172.93C390.924 173.28 390.854 173.72 390.854 174.25C390.854 174.78 390.924 175.22 391.064 175.57C391.204 175.92 391.404 176.185 391.664 176.365C391.934 176.535 392.259 176.62 392.639 176.62C393.009 176.62 393.324 176.535 393.584 176.365C393.854 176.185 394.059 175.92 394.199 175.57C394.339 175.22 394.409 174.78 394.409 174.25C394.409 173.72 394.339 173.28 394.199 172.93C394.059 172.58 393.854 172.32 393.584 172.15C393.324 171.97 393.009 171.88 392.639 171.88ZM397.598 178V170.5H399.383L399.518 171.97C399.718 171.45 400.008 171.05 400.388 170.77C400.778 170.49 401.263 170.35 401.843 170.35C402.013 170.35 402.168 170.365 402.308 170.395C402.448 170.425 402.563 170.465 402.653 170.515L402.413 172.24C402.313 172.2 402.188 172.17 402.038 172.15C401.898 172.13 401.713 172.12 401.483 172.12C401.183 172.12 400.893 172.195 400.613 172.345C400.333 172.485 400.103 172.705 399.923 173.005C399.743 173.295 399.653 173.665 399.653 174.115V178H397.598ZM403.326 178V170.5H405.171L405.246 171.85C405.496 171.35 405.836 170.975 406.266 170.725C406.706 170.475 407.191 170.35 407.721 170.35C408.261 170.35 408.746 170.475 409.176 170.725C409.616 170.975 409.946 171.345 410.166 171.835C410.326 171.505 410.541 171.23 410.811 171.01C411.081 170.79 411.381 170.625 411.711 170.515C412.041 170.405 412.376 170.35 412.716 170.35C413.206 170.35 413.651 170.45 414.051 170.65C414.461 170.85 414.786 171.15 415.026 171.55C415.266 171.95 415.386 172.46 415.386 173.08V178H413.331V173.485C413.331 172.935 413.211 172.545 412.971 172.315C412.731 172.085 412.421 171.97 412.041 171.97C411.741 171.97 411.461 172.045 411.201 172.195C410.951 172.345 410.751 172.57 410.601 172.87C410.461 173.16 410.391 173.525 410.391 173.965V178H408.336V173.485C408.336 172.935 408.211 172.545 407.961 172.315C407.721 172.085 407.411 171.97 407.031 171.97C406.771 171.97 406.511 172.04 406.251 172.18C406.001 172.32 405.791 172.54 405.621 172.84C405.461 173.14 405.381 173.535 405.381 174.025V178H403.326ZM421.181 173.215C421.181 172.785 421.056 172.45 420.806 172.21C420.566 171.97 420.246 171.85 419.846 171.85C419.476 171.85 419.151 171.945 418.871 172.135C418.591 172.325 418.386 172.64 418.256 173.08L416.501 172.54C416.671 171.88 417.041 171.35 417.611 170.95C418.191 170.55 418.966 170.35 419.936 170.35C420.596 170.35 421.171 170.455 421.661 170.665C422.151 170.865 422.531 171.17 422.801 171.58C423.081 171.99 423.221 172.505 423.221 173.125V176.17C423.221 176.55 423.401 176.74 423.761 176.74C423.931 176.74 424.091 176.715 424.241 176.665L424.121 177.94C423.861 178.07 423.536 178.135 423.146 178.135C422.796 178.135 422.481 178.075 422.201 177.955C421.921 177.835 421.701 177.655 421.541 177.415C421.381 177.165 421.301 176.855 421.301 176.485V176.425L421.661 176.365C421.601 176.745 421.436 177.07 421.166 177.34C420.896 177.6 420.566 177.8 420.176 177.94C419.796 178.08 419.401 178.15 418.991 178.15C418.481 178.15 418.041 178.075 417.671 177.925C417.301 177.765 417.016 177.535 416.816 177.235C416.616 176.935 416.516 176.565 416.516 176.125C416.516 175.565 416.696 175.11 417.056 174.76C417.416 174.4 417.931 174.155 418.601 174.025L421.421 173.455L421.406 174.73L419.606 175.09C419.266 175.16 419.006 175.255 418.826 175.375C418.656 175.485 418.571 175.67 418.571 175.93C418.571 176.18 418.661 176.37 418.841 176.5C419.031 176.63 419.256 176.695 419.516 176.695C419.726 176.695 419.931 176.67 420.131 176.62C420.331 176.57 420.511 176.49 420.671 176.38C420.831 176.27 420.956 176.12 421.046 175.93C421.136 175.74 421.181 175.51 421.181 175.24V173.215ZM428.295 170.35C428.965 170.35 429.53 170.45 429.99 170.65C430.46 170.84 430.835 171.105 431.115 171.445C431.405 171.775 431.61 172.145 431.73 172.555L429.81 173.245C429.71 172.795 429.54 172.455 429.3 172.225C429.06 171.995 428.735 171.88 428.325 171.88C427.945 171.88 427.62 171.97 427.35 172.15C427.08 172.32 426.875 172.585 426.735 172.945C426.595 173.295 426.525 173.735 426.525 174.265C426.525 174.795 426.595 175.235 426.735 175.585C426.885 175.935 427.095 176.195 427.365 176.365C427.645 176.535 427.97 176.62 428.34 176.62C428.64 176.62 428.895 176.57 429.105 176.47C429.315 176.36 429.485 176.205 429.615 176.005C429.755 175.805 429.85 175.565 429.9 175.285L431.76 175.885C431.65 176.335 431.445 176.73 431.145 177.07C430.845 177.41 430.46 177.675 429.99 177.865C429.52 178.055 428.975 178.15 428.355 178.15C427.585 178.15 426.905 177.995 426.315 177.685C425.725 177.375 425.27 176.93 424.95 176.35C424.63 175.77 424.47 175.07 424.47 174.25C424.47 173.43 424.63 172.73 424.95 172.15C425.27 171.57 425.72 171.125 426.3 170.815C426.88 170.505 427.545 170.35 428.295 170.35ZM433.792 169.42C433.362 169.42 433.042 169.33 432.832 169.15C432.622 168.96 432.517 168.685 432.517 168.325C432.517 167.955 432.622 167.68 432.832 167.5C433.042 167.31 433.362 167.215 433.792 167.215C434.222 167.215 434.542 167.31 434.752 167.5C434.962 167.68 435.067 167.955 435.067 168.325C435.067 168.685 434.962 168.96 434.752 169.15C434.542 169.33 434.222 169.42 433.792 169.42ZM434.812 170.5V178H432.757V170.5H434.812ZM439.81 170.35C440.57 170.35 441.235 170.505 441.805 170.815C442.385 171.125 442.835 171.57 443.155 172.15C443.485 172.73 443.65 173.43 443.65 174.25C443.65 175.06 443.485 175.76 443.155 176.35C442.835 176.93 442.385 177.375 441.805 177.685C441.235 177.995 440.57 178.15 439.81 178.15C439.06 178.15 438.395 177.995 437.815 177.685C437.235 177.375 436.78 176.93 436.45 176.35C436.13 175.76 435.97 175.06 435.97 174.25C435.97 173.43 436.13 172.73 436.45 172.15C436.78 171.57 437.235 171.125 437.815 170.815C438.395 170.505 439.06 170.35 439.81 170.35ZM439.81 171.88C439.43 171.88 439.105 171.97 438.835 172.15C438.575 172.32 438.375 172.58 438.235 172.93C438.095 173.28 438.025 173.72 438.025 174.25C438.025 174.78 438.095 175.22 438.235 175.57C438.375 175.92 438.575 176.185 438.835 176.365C439.105 176.535 439.43 176.62 439.81 176.62C440.18 176.62 440.495 176.535 440.755 176.365C441.025 176.185 441.23 175.92 441.37 175.57C441.51 175.22 441.58 174.78 441.58 174.25C441.58 173.72 441.51 173.28 441.37 172.93C441.23 172.58 441.025 172.32 440.755 172.15C440.495 171.97 440.18 171.88 439.81 171.88ZM439.855 166.87H441.835L440.335 169.42H438.82L439.855 166.87ZM444.77 178V170.5H446.615L446.735 172.75L446.48 172.51C446.6 172.02 446.79 171.615 447.05 171.295C447.31 170.975 447.625 170.74 447.995 170.59C448.375 170.43 448.79 170.35 449.24 170.35C449.76 170.35 450.22 170.45 450.62 170.65C451.03 170.85 451.35 171.155 451.58 171.565C451.82 171.965 451.94 172.47 451.94 173.08V178H449.885V173.665C449.885 173.025 449.76 172.585 449.51 172.345C449.26 172.095 448.935 171.97 448.535 171.97C448.255 171.97 447.98 172.04 447.71 172.18C447.45 172.31 447.235 172.525 447.065 172.825C446.905 173.125 446.825 173.525 446.825 174.025V178H444.77ZM460.277 178.15C459.657 178.15 459.102 177.995 458.612 177.685C458.132 177.375 457.752 176.93 457.472 176.35C457.202 175.77 457.067 175.075 457.067 174.265C457.067 173.435 457.212 172.73 457.502 172.15C457.792 171.56 458.182 171.115 458.672 170.815C459.172 170.505 459.732 170.35 460.352 170.35C461.012 170.35 461.557 170.54 461.987 170.92C462.417 171.3 462.697 171.79 462.827 172.39L462.632 172.63V167.215H464.687V178H462.842L462.707 175.72L462.962 175.84C462.892 176.31 462.732 176.72 462.482 177.07C462.232 177.41 461.917 177.675 461.537 177.865C461.157 178.055 460.737 178.15 460.277 178.15ZM460.877 176.575C461.237 176.575 461.547 176.485 461.807 176.305C462.067 176.115 462.267 175.84 462.407 175.48C462.557 175.12 462.632 174.69 462.632 174.19C462.632 173.71 462.562 173.305 462.422 172.975C462.282 172.635 462.082 172.375 461.822 172.195C461.562 172.015 461.257 171.925 460.907 171.925C460.347 171.925 459.907 172.125 459.587 172.525C459.277 172.915 459.122 173.49 459.122 174.25C459.122 175.01 459.277 175.59 459.587 175.99C459.897 176.38 460.327 176.575 460.877 176.575ZM469.726 178.15C468.936 178.15 468.246 177.995 467.656 177.685C467.076 177.375 466.626 176.93 466.306 176.35C465.986 175.77 465.826 175.07 465.826 174.25C465.826 173.43 465.986 172.73 466.306 172.15C466.626 171.57 467.071 171.125 467.641 170.815C468.221 170.505 468.881 170.35 469.621 170.35C470.381 170.35 471.026 170.505 471.556 170.815C472.086 171.115 472.491 171.53 472.771 172.06C473.051 172.58 473.191 173.175 473.191 173.845C473.191 174.045 473.186 174.235 473.176 174.415C473.166 174.595 473.151 174.755 473.131 174.895H467.146V173.47H472.231L471.241 173.83C471.241 173.2 471.096 172.715 470.806 172.375C470.526 172.035 470.126 171.865 469.606 171.865C469.226 171.865 468.896 171.955 468.616 172.135C468.346 172.315 468.141 172.585 468.001 172.945C467.861 173.295 467.791 173.74 467.791 174.28C467.791 174.81 467.866 175.25 468.016 175.6C468.176 175.94 468.396 176.195 468.676 176.365C468.966 176.535 469.311 176.62 469.711 176.62C470.151 176.62 470.506 176.535 470.776 176.365C471.046 176.195 471.256 175.96 471.406 175.66L473.041 176.29C472.881 176.68 472.636 177.015 472.306 177.295C471.986 177.575 471.601 177.79 471.151 177.94C470.711 178.08 470.236 178.15 469.726 178.15ZM480.343 167.215V175.69C480.343 176.04 480.403 176.285 480.523 176.425C480.643 176.565 480.843 176.635 481.123 176.635C481.293 176.635 481.433 176.625 481.543 176.605C481.653 176.575 481.793 176.535 481.963 176.485L481.783 177.835C481.613 177.935 481.398 178.01 481.138 178.06C480.888 178.12 480.638 178.15 480.388 178.15C479.658 178.15 479.123 177.975 478.783 177.625C478.453 177.265 478.288 176.695 478.288 175.915V167.215H480.343ZM486.856 173.215C486.856 172.785 486.731 172.45 486.481 172.21C486.241 171.97 485.921 171.85 485.521 171.85C485.151 171.85 484.826 171.945 484.546 172.135C484.266 172.325 484.061 172.64 483.931 173.08L482.176 172.54C482.346 171.88 482.716 171.35 483.286 170.95C483.866 170.55 484.641 170.35 485.611 170.35C486.271 170.35 486.846 170.455 487.336 170.665C487.826 170.865 488.206 171.17 488.476 171.58C488.756 171.99 488.896 172.505 488.896 173.125V176.17C488.896 176.55 489.076 176.74 489.436 176.74C489.606 176.74 489.766 176.715 489.916 176.665L489.796 177.94C489.536 178.07 489.211 178.135 488.821 178.135C488.471 178.135 488.156 178.075 487.876 177.955C487.596 177.835 487.376 177.655 487.216 177.415C487.056 177.165 486.976 176.855 486.976 176.485V176.425L487.336 176.365C487.276 176.745 487.111 177.07 486.841 177.34C486.571 177.6 486.241 177.8 485.851 177.94C485.471 178.08 485.076 178.15 484.666 178.15C484.156 178.15 483.716 178.075 483.346 177.925C482.976 177.765 482.691 177.535 482.491 177.235C482.291 176.935 482.191 176.565 482.191 176.125C482.191 175.565 482.371 175.11 482.731 174.76C483.091 174.4 483.606 174.155 484.276 174.025L487.096 173.455L487.081 174.73L485.281 175.09C484.941 175.16 484.681 175.255 484.501 175.375C484.331 175.485 484.246 175.67 484.246 175.93C484.246 176.18 484.336 176.37 484.516 176.5C484.706 176.63 484.931 176.695 485.191 176.695C485.401 176.695 485.606 176.67 485.806 176.62C486.006 176.57 486.186 176.49 486.346 176.38C486.506 176.27 486.631 176.12 486.721 175.93C486.811 175.74 486.856 175.51 486.856 175.24V173.215ZM498.934 168.1C500.054 168.1 500.934 168.37 501.574 168.91C502.214 169.45 502.534 170.175 502.534 171.085C502.534 172.055 502.214 172.8 501.574 173.32C500.934 173.83 500.059 174.085 498.949 174.085L498.739 174.205H496.609V178H494.569V168.1H498.934ZM498.694 172.63C499.274 172.63 499.704 172.515 499.984 172.285C500.274 172.045 500.419 171.68 500.419 171.19C500.419 170.7 500.274 170.34 499.984 170.11C499.704 169.87 499.274 169.75 498.694 169.75H496.609V172.63H498.694ZM499.909 173.065L503.119 178H500.794L498.139 173.665L499.909 173.065ZM507.288 178.15C506.498 178.15 505.808 177.995 505.218 177.685C504.638 177.375 504.188 176.93 503.868 176.35C503.548 175.77 503.388 175.07 503.388 174.25C503.388 173.43 503.548 172.73 503.868 172.15C504.188 171.57 504.633 171.125 505.203 170.815C505.783 170.505 506.443 170.35 507.183 170.35C507.943 170.35 508.588 170.505 509.118 170.815C509.648 171.115 510.053 171.53 510.333 172.06C510.613 172.58 510.753 173.175 510.753 173.845C510.753 174.045 510.748 174.235 510.738 174.415C510.728 174.595 510.713 174.755 510.693 174.895H504.708V173.47H509.793L508.803 173.83C508.803 173.2 508.658 172.715 508.368 172.375C508.088 172.035 507.688 171.865 507.168 171.865C506.788 171.865 506.458 171.955 506.178 172.135C505.908 172.315 505.703 172.585 505.563 172.945C505.423 173.295 505.353 173.74 505.353 174.28C505.353 174.81 505.428 175.25 505.578 175.6C505.738 175.94 505.958 176.195 506.238 176.365C506.528 176.535 506.873 176.62 507.273 176.62C507.713 176.62 508.068 176.535 508.338 176.365C508.608 176.195 508.818 175.96 508.968 175.66L510.603 176.29C510.443 176.68 510.198 177.015 509.868 177.295C509.548 177.575 509.163 177.79 508.713 177.94C508.273 178.08 507.798 178.15 507.288 178.15ZM514.73 178.15C514.11 178.15 513.555 177.995 513.065 177.685C512.585 177.375 512.205 176.93 511.925 176.35C511.655 175.77 511.52 175.075 511.52 174.265C511.52 173.435 511.665 172.73 511.955 172.15C512.245 171.56 512.635 171.115 513.125 170.815C513.625 170.505 514.185 170.35 514.805 170.35C515.465 170.35 516.01 170.54 516.44 170.92C516.87 171.3 517.15 171.79 517.28 172.39L517.085 172.63V167.215H519.14V178H517.295L517.16 175.72L517.415 175.84C517.345 176.31 517.185 176.72 516.935 177.07C516.685 177.41 516.37 177.675 515.99 177.865C515.61 178.055 515.19 178.15 514.73 178.15ZM515.33 176.575C515.69 176.575 516 176.485 516.26 176.305C516.52 176.115 516.72 175.84 516.86 175.48C517.01 175.12 517.085 174.69 517.085 174.19C517.085 173.71 517.015 173.305 516.875 172.975C516.735 172.635 516.535 172.375 516.275 172.195C516.015 172.015 515.71 171.925 515.36 171.925C514.8 171.925 514.36 172.125 514.04 172.525C513.73 172.915 513.575 173.49 513.575 174.25C513.575 175.01 513.73 175.59 514.04 175.99C514.35 176.38 514.78 176.575 515.33 176.575ZM532.416 168.1V169.765H529.101V178H527.031V169.765H523.701V168.1H532.416ZM535.298 178.15C534.508 178.15 533.818 177.995 533.228 177.685C532.648 177.375 532.198 176.93 531.878 176.35C531.558 175.77 531.398 175.07 531.398 174.25C531.398 173.43 531.558 172.73 531.878 172.15C532.198 171.57 532.643 171.125 533.213 170.815C533.793 170.505 534.453 170.35 535.193 170.35C535.953 170.35 536.598 170.505 537.128 170.815C537.658 171.115 538.063 171.53 538.343 172.06C538.623 172.58 538.763 173.175 538.763 173.845C538.763 174.045 538.758 174.235 538.748 174.415C538.738 174.595 538.723 174.755 538.703 174.895H532.718V173.47H537.803L536.813 173.83C536.813 173.2 536.668 172.715 536.378 172.375C536.098 172.035 535.698 171.865 535.178 171.865C534.798 171.865 534.468 171.955 534.188 172.135C533.918 172.315 533.713 172.585 533.573 172.945C533.433 173.295 533.363 173.74 533.363 174.28C533.363 174.81 533.438 175.25 533.588 175.6C533.748 175.94 533.968 176.195 534.248 176.365C534.538 176.535 534.883 176.62 535.283 176.62C535.723 176.62 536.078 176.535 536.348 176.365C536.618 176.195 536.828 175.96 536.978 175.66L538.613 176.29C538.453 176.68 538.208 177.015 537.878 177.295C537.558 177.575 537.173 177.79 536.723 177.94C536.283 178.08 535.808 178.15 535.298 178.15ZM543.31 170.35C543.98 170.35 544.545 170.45 545.005 170.65C545.475 170.84 545.85 171.105 546.13 171.445C546.42 171.775 546.625 172.145 546.745 172.555L544.825 173.245C544.725 172.795 544.555 172.455 544.315 172.225C544.075 171.995 543.75 171.88 543.34 171.88C542.96 171.88 542.635 171.97 542.365 172.15C542.095 172.32 541.89 172.585 541.75 172.945C541.61 173.295 541.54 173.735 541.54 174.265C541.54 174.795 541.61 175.235 541.75 175.585C541.9 175.935 542.11 176.195 542.38 176.365C542.66 176.535 542.985 176.62 543.355 176.62C543.655 176.62 543.91 176.57 544.12 176.47C544.33 176.36 544.5 176.205 544.63 176.005C544.77 175.805 544.865 175.565 544.915 175.285L546.775 175.885C546.665 176.335 546.46 176.73 546.16 177.07C545.86 177.41 545.475 177.675 545.005 177.865C544.535 178.055 543.99 178.15 543.37 178.15C542.6 178.15 541.92 177.995 541.33 177.685C540.74 177.375 540.285 176.93 539.965 176.35C539.645 175.77 539.485 175.07 539.485 174.25C539.485 173.43 539.645 172.73 539.965 172.15C540.285 171.57 540.735 171.125 541.315 170.815C541.895 170.505 542.56 170.35 543.31 170.35ZM547.772 178V170.5H549.617L549.737 172.75L549.482 172.51C549.602 172.02 549.792 171.615 550.052 171.295C550.312 170.975 550.627 170.74 550.997 170.59C551.377 170.43 551.792 170.35 552.242 170.35C552.762 170.35 553.222 170.45 553.622 170.65C554.032 170.85 554.352 171.155 554.582 171.565C554.822 171.965 554.942 172.47 554.942 173.08V178H552.887V173.665C552.887 173.025 552.762 172.585 552.512 172.345C552.262 172.095 551.937 171.97 551.537 171.97C551.257 171.97 550.982 172.04 550.712 172.18C550.452 172.31 550.237 172.525 550.067 172.825C549.907 173.125 549.827 173.525 549.827 174.025V178H547.772ZM559.879 170.35C560.639 170.35 561.304 170.505 561.874 170.815C562.454 171.125 562.904 171.57 563.224 172.15C563.554 172.73 563.719 173.43 563.719 174.25C563.719 175.06 563.554 175.76 563.224 176.35C562.904 176.93 562.454 177.375 561.874 177.685C561.304 177.995 560.639 178.15 559.879 178.15C559.129 178.15 558.464 177.995 557.884 177.685C557.304 177.375 556.849 176.93 556.519 176.35C556.199 175.76 556.039 175.06 556.039 174.25C556.039 173.43 556.199 172.73 556.519 172.15C556.849 171.57 557.304 171.125 557.884 170.815C558.464 170.505 559.129 170.35 559.879 170.35ZM559.879 171.88C559.499 171.88 559.174 171.97 558.904 172.15C558.644 172.32 558.444 172.58 558.304 172.93C558.164 173.28 558.094 173.72 558.094 174.25C558.094 174.78 558.164 175.22 558.304 175.57C558.444 175.92 558.644 176.185 558.904 176.365C559.174 176.535 559.499 176.62 559.879 176.62C560.249 176.62 560.564 176.535 560.824 176.365C561.094 176.185 561.299 175.92 561.439 175.57C561.579 175.22 561.649 174.78 561.649 174.25C561.649 173.72 561.579 173.28 561.439 172.93C561.299 172.58 561.094 172.32 560.824 172.15C560.564 171.97 560.249 171.88 559.879 171.88ZM564.838 181.15V170.5H566.683L566.818 172.885L566.563 172.615C566.653 172.175 566.818 171.785 567.058 171.445C567.308 171.105 567.623 170.84 568.003 170.65C568.383 170.45 568.808 170.35 569.278 170.35C569.888 170.35 570.433 170.505 570.913 170.815C571.393 171.125 571.768 171.57 572.038 172.15C572.318 172.72 572.458 173.415 572.458 174.235C572.458 175.055 572.318 175.76 572.038 176.35C571.758 176.93 571.373 177.375 570.883 177.685C570.403 177.995 569.853 178.15 569.233 178.15C568.573 178.15 568.023 177.965 567.583 177.595C567.153 177.225 566.858 176.76 566.698 176.2L566.893 175.885V181.15H564.838ZM568.633 176.575C569.183 176.575 569.613 176.38 569.923 175.99C570.243 175.59 570.403 175.01 570.403 174.25C570.403 173.49 570.248 172.915 569.938 172.525C569.638 172.125 569.213 171.925 568.663 171.925C568.313 171.925 568.003 172.02 567.733 172.21C567.473 172.39 567.268 172.655 567.118 173.005C566.968 173.345 566.893 173.76 566.893 174.25C566.893 174.73 566.963 175.145 567.103 175.495C567.243 175.845 567.443 176.115 567.703 176.305C567.973 176.485 568.283 176.575 568.633 176.575ZM577.874 173.215C577.874 172.785 577.749 172.45 577.499 172.21C577.259 171.97 576.939 171.85 576.539 171.85C576.169 171.85 575.844 171.945 575.564 172.135C575.284 172.325 575.079 172.64 574.949 173.08L573.194 172.54C573.364 171.88 573.734 171.35 574.304 170.95C574.884 170.55 575.659 170.35 576.629 170.35C577.289 170.35 577.864 170.455 578.354 170.665C578.844 170.865 579.224 171.17 579.494 171.58C579.774 171.99 579.914 172.505 579.914 173.125V176.17C579.914 176.55 580.094 176.74 580.454 176.74C580.624 176.74 580.784 176.715 580.934 176.665L580.814 177.94C580.554 178.07 580.229 178.135 579.839 178.135C579.489 178.135 579.174 178.075 578.894 177.955C578.614 177.835 578.394 177.655 578.234 177.415C578.074 177.165 577.994 176.855 577.994 176.485V176.425L578.354 176.365C578.294 176.745 578.129 177.07 577.859 177.34C577.589 177.6 577.259 177.8 576.869 177.94C576.489 178.08 576.094 178.15 575.684 178.15C575.174 178.15 574.734 178.075 574.364 177.925C573.994 177.765 573.709 177.535 573.509 177.235C573.309 176.935 573.209 176.565 573.209 176.125C573.209 175.565 573.389 175.11 573.749 174.76C574.109 174.4 574.624 174.155 575.294 174.025L578.114 173.455L578.099 174.73L576.299 175.09C575.959 175.16 575.699 175.255 575.519 175.375C575.349 175.485 575.264 175.67 575.264 175.93C575.264 176.18 575.354 176.37 575.534 176.5C575.724 176.63 575.949 176.695 576.209 176.695C576.419 176.695 576.624 176.67 576.824 176.62C577.024 176.57 577.204 176.49 577.364 176.38C577.524 176.27 577.649 176.12 577.739 175.93C577.829 175.74 577.874 175.51 577.874 175.24V173.215ZM581.612 178V170.5H583.397L583.532 171.97C583.732 171.45 584.022 171.05 584.402 170.77C584.792 170.49 585.277 170.35 585.857 170.35C586.027 170.35 586.182 170.365 586.322 170.395C586.462 170.425 586.577 170.465 586.667 170.515L586.427 172.24C586.327 172.2 586.202 172.17 586.052 172.15C585.912 172.13 585.727 172.12 585.497 172.12C585.197 172.12 584.907 172.195 584.627 172.345C584.347 172.485 584.117 172.705 583.937 173.005C583.757 173.295 583.667 173.665 583.667 174.115V178H581.612ZM592.384 181.15V175.66L592.624 175.93C592.554 176.38 592.399 176.77 592.159 177.1C591.919 177.43 591.614 177.69 591.244 177.88C590.884 178.06 590.479 178.15 590.029 178.15C589.409 178.15 588.854 177.995 588.364 177.685C587.884 177.375 587.504 176.93 587.224 176.35C586.954 175.76 586.819 175.055 586.819 174.235C586.819 173.405 586.959 172.705 587.239 172.135C587.529 171.555 587.924 171.115 588.424 170.815C588.924 170.505 589.484 170.35 590.104 170.35C590.564 170.35 590.979 170.45 591.349 170.65C591.719 170.84 592.024 171.115 592.264 171.475C592.504 171.825 592.659 172.23 592.729 172.69L592.459 172.84L592.594 170.5H594.439V181.15H592.384ZM590.629 176.575C590.989 176.575 591.299 176.485 591.559 176.305C591.819 176.115 592.019 175.845 592.159 175.495C592.309 175.135 592.384 174.71 592.384 174.22C592.384 173.72 592.309 173.3 592.159 172.96C592.019 172.62 591.819 172.365 591.559 172.195C591.299 172.015 590.994 171.925 590.644 171.925C590.094 171.925 589.659 172.125 589.339 172.525C589.029 172.915 588.874 173.49 588.874 174.25C588.874 175.01 589.029 175.59 589.339 175.99C589.649 176.38 590.079 176.575 590.629 176.575ZM598.608 178.15C598.108 178.15 597.658 178.06 597.258 177.88C596.858 177.7 596.538 177.415 596.298 177.025C596.068 176.625 595.953 176.11 595.953 175.48V170.5H598.008V174.985C598.008 175.565 598.128 175.97 598.368 176.2C598.608 176.42 598.953 176.53 599.403 176.53C599.613 176.53 599.818 176.495 600.018 176.425C600.218 176.345 600.393 176.225 600.543 176.065C600.703 175.905 600.828 175.7 600.918 175.45C601.008 175.19 601.053 174.885 601.053 174.535V170.5H603.108V178H601.278L601.203 176.695C600.953 177.195 600.608 177.565 600.168 177.805C599.738 178.035 599.218 178.15 598.608 178.15ZM608.15 178.15C607.36 178.15 606.67 177.995 606.08 177.685C605.5 177.375 605.05 176.93 604.73 176.35C604.41 175.77 604.25 175.07 604.25 174.25C604.25 173.43 604.41 172.73 604.73 172.15C605.05 171.57 605.495 171.125 606.065 170.815C606.645 170.505 607.305 170.35 608.045 170.35C608.805 170.35 609.45 170.505 609.98 170.815C610.51 171.115 610.915 171.53 611.195 172.06C611.475 172.58 611.615 173.175 611.615 173.845C611.615 174.045 611.61 174.235 611.6 174.415C611.59 174.595 611.575 174.755 611.555 174.895H605.57V173.47H610.655L609.665 173.83C609.665 173.2 609.52 172.715 609.23 172.375C608.95 172.035 608.55 171.865 608.03 171.865C607.65 171.865 607.32 171.955 607.04 172.135C606.77 172.315 606.565 172.585 606.425 172.945C606.285 173.295 606.215 173.74 606.215 174.28C606.215 174.81 606.29 175.25 606.44 175.6C606.6 175.94 606.82 176.195 607.1 176.365C607.39 176.535 607.735 176.62 608.135 176.62C608.575 176.62 608.93 176.535 609.2 176.365C609.47 176.195 609.68 175.96 609.83 175.66L611.465 176.29C611.305 176.68 611.06 177.015 610.73 177.295C610.41 177.575 610.025 177.79 609.575 177.94C609.135 178.08 608.66 178.15 608.15 178.15ZM428.156 193.27C427.966 193.91 427.666 194.445 427.256 194.875C426.846 195.305 426.361 195.625 425.801 195.835C425.241 196.045 424.626 196.15 423.956 196.15C422.976 196.15 422.126 195.945 421.406 195.535C420.696 195.125 420.146 194.54 419.756 193.78C419.376 193.02 419.186 192.11 419.186 191.05C419.186 189.99 419.376 189.08 419.756 188.32C420.146 187.56 420.696 186.975 421.406 186.565C422.126 186.155 422.966 185.95 423.926 185.95C424.606 185.95 425.221 186.045 425.771 186.235C426.321 186.415 426.786 186.695 427.166 187.075C427.556 187.455 427.841 187.935 428.021 188.515L426.146 189.31C425.976 188.71 425.716 188.285 425.366 188.035C425.016 187.775 424.566 187.645 424.016 187.645C423.476 187.645 423.001 187.775 422.591 188.035C422.191 188.295 421.881 188.68 421.661 189.19C421.441 189.69 421.331 190.31 421.331 191.05C421.331 191.78 421.431 192.4 421.631 192.91C421.841 193.42 422.146 193.805 422.546 194.065C422.946 194.325 423.436 194.455 424.016 194.455C424.556 194.455 425.021 194.31 425.411 194.02C425.811 193.73 426.091 193.29 426.251 192.7L428.156 193.27ZM432.53 188.35C433.29 188.35 433.955 188.505 434.525 188.815C435.105 189.125 435.555 189.57 435.875 190.15C436.205 190.73 436.37 191.43 436.37 192.25C436.37 193.06 436.205 193.76 435.875 194.35C435.555 194.93 435.105 195.375 434.525 195.685C433.955 195.995 433.29 196.15 432.53 196.15C431.78 196.15 431.115 195.995 430.535 195.685C429.955 195.375 429.5 194.93 429.17 194.35C428.85 193.76 428.69 193.06 428.69 192.25C428.69 191.43 428.85 190.73 429.17 190.15C429.5 189.57 429.955 189.125 430.535 188.815C431.115 188.505 431.78 188.35 432.53 188.35ZM432.53 189.88C432.15 189.88 431.825 189.97 431.555 190.15C431.295 190.32 431.095 190.58 430.955 190.93C430.815 191.28 430.745 191.72 430.745 192.25C430.745 192.78 430.815 193.22 430.955 193.57C431.095 193.92 431.295 194.185 431.555 194.365C431.825 194.535 432.15 194.62 432.53 194.62C432.9 194.62 433.215 194.535 433.475 194.365C433.745 194.185 433.95 193.92 434.09 193.57C434.23 193.22 434.3 192.78 434.3 192.25C434.3 191.72 434.23 191.28 434.09 190.93C433.95 190.58 433.745 190.32 433.475 190.15C433.215 189.97 432.9 189.88 432.53 189.88ZM439.514 185.215V193.69C439.514 194.04 439.574 194.285 439.694 194.425C439.814 194.565 440.014 194.635 440.294 194.635C440.464 194.635 440.604 194.625 440.714 194.605C440.824 194.575 440.964 194.535 441.134 194.485L440.954 195.835C440.784 195.935 440.569 196.01 440.309 196.06C440.059 196.12 439.809 196.15 439.559 196.15C438.829 196.15 438.294 195.975 437.954 195.625C437.624 195.265 437.459 194.695 437.459 193.915V185.215H439.514ZM445.099 188.35C445.859 188.35 446.524 188.505 447.094 188.815C447.674 189.125 448.124 189.57 448.444 190.15C448.774 190.73 448.939 191.43 448.939 192.25C448.939 193.06 448.774 193.76 448.444 194.35C448.124 194.93 447.674 195.375 447.094 195.685C446.524 195.995 445.859 196.15 445.099 196.15C444.349 196.15 443.684 195.995 443.104 195.685C442.524 195.375 442.069 194.93 441.739 194.35C441.419 193.76 441.259 193.06 441.259 192.25C441.259 191.43 441.419 190.73 441.739 190.15C442.069 189.57 442.524 189.125 443.104 188.815C443.684 188.505 444.349 188.35 445.099 188.35ZM445.099 189.88C444.719 189.88 444.394 189.97 444.124 190.15C443.864 190.32 443.664 190.58 443.524 190.93C443.384 191.28 443.314 191.72 443.314 192.25C443.314 192.78 443.384 193.22 443.524 193.57C443.664 193.92 443.864 194.185 444.124 194.365C444.394 194.535 444.719 194.62 445.099 194.62C445.469 194.62 445.784 194.535 446.044 194.365C446.314 194.185 446.519 193.92 446.659 193.57C446.799 193.22 446.869 192.78 446.869 192.25C446.869 191.72 446.799 191.28 446.659 190.93C446.519 190.58 446.314 190.32 446.044 190.15C445.784 189.97 445.469 189.88 445.099 189.88ZM450.059 196V188.5H451.904L451.979 189.85C452.229 189.35 452.569 188.975 452.999 188.725C453.439 188.475 453.924 188.35 454.454 188.35C454.994 188.35 455.479 188.475 455.909 188.725C456.349 188.975 456.679 189.345 456.899 189.835C457.059 189.505 457.274 189.23 457.544 189.01C457.814 188.79 458.114 188.625 458.444 188.515C458.774 188.405 459.109 188.35 459.449 188.35C459.939 188.35 460.384 188.45 460.784 188.65C461.194 188.85 461.519 189.15 461.759 189.55C461.999 189.95 462.119 190.46 462.119 191.08V196H460.064V191.485C460.064 190.935 459.944 190.545 459.704 190.315C459.464 190.085 459.154 189.97 458.774 189.97C458.474 189.97 458.194 190.045 457.934 190.195C457.684 190.345 457.484 190.57 457.334 190.87C457.194 191.16 457.124 191.525 457.124 191.965V196H455.069V191.485C455.069 190.935 454.944 190.545 454.694 190.315C454.454 190.085 454.144 189.97 453.764 189.97C453.504 189.97 453.244 190.04 452.984 190.18C452.734 190.32 452.524 190.54 452.354 190.84C452.194 191.14 452.114 191.535 452.114 192.025V196H450.059ZM468.049 196.15C467.589 196.15 467.169 196.055 466.789 195.865C466.419 195.665 466.109 195.395 465.859 195.055C465.619 194.705 465.454 194.315 465.364 193.885L465.574 193.615L465.454 196H463.639V185.215H465.694V190.615L465.499 190.3C465.659 189.74 465.964 189.275 466.414 188.905C466.864 188.535 467.429 188.35 468.109 188.35C468.699 188.35 469.234 188.505 469.714 188.815C470.194 189.125 470.569 189.57 470.839 190.15C471.119 190.73 471.259 191.435 471.259 192.265C471.259 193.075 471.119 193.77 470.839 194.35C470.569 194.93 470.189 195.375 469.699 195.685C469.219 195.995 468.669 196.15 468.049 196.15ZM467.434 194.575C467.984 194.575 468.414 194.38 468.724 193.99C469.044 193.59 469.204 193.01 469.204 192.25C469.204 191.49 469.049 190.915 468.739 190.525C468.429 190.125 467.999 189.925 467.449 189.925C467.089 189.925 466.779 190.02 466.519 190.21C466.259 190.4 466.054 190.67 465.904 191.02C465.764 191.37 465.694 191.785 465.694 192.265C465.694 192.755 465.764 193.175 465.904 193.525C466.054 193.865 466.259 194.125 466.519 194.305C466.789 194.485 467.094 194.575 467.434 194.575ZM473.478 187.42C473.048 187.42 472.728 187.33 472.518 187.15C472.308 186.96 472.203 186.685 472.203 186.325C472.203 185.955 472.308 185.68 472.518 185.5C472.728 185.31 473.048 185.215 473.478 185.215C473.908 185.215 474.228 185.31 474.438 185.5C474.648 185.68 474.753 185.955 474.753 186.325C474.753 186.685 474.648 186.96 474.438 187.15C474.228 187.33 473.908 187.42 473.478 187.42ZM474.498 188.5V196H472.443V188.5H474.498ZM480.351 191.215C480.351 190.785 480.226 190.45 479.976 190.21C479.736 189.97 479.416 189.85 479.016 189.85C478.646 189.85 478.321 189.945 478.041 190.135C477.761 190.325 477.556 190.64 477.426 191.08L475.671 190.54C475.841 189.88 476.211 189.35 476.781 188.95C477.361 188.55 478.136 188.35 479.106 188.35C479.766 188.35 480.341 188.455 480.831 188.665C481.321 188.865 481.701 189.17 481.971 189.58C482.251 189.99 482.391 190.505 482.391 191.125V194.17C482.391 194.55 482.571 194.74 482.931 194.74C483.101 194.74 483.261 194.715 483.411 194.665L483.291 195.94C483.031 196.07 482.706 196.135 482.316 196.135C481.966 196.135 481.651 196.075 481.371 195.955C481.091 195.835 480.871 195.655 480.711 195.415C480.551 195.165 480.471 194.855 480.471 194.485V194.425L480.831 194.365C480.771 194.745 480.606 195.07 480.336 195.34C480.066 195.6 479.736 195.8 479.346 195.94C478.966 196.08 478.571 196.15 478.161 196.15C477.651 196.15 477.211 196.075 476.841 195.925C476.471 195.765 476.186 195.535 475.986 195.235C475.786 194.935 475.686 194.565 475.686 194.125C475.686 193.565 475.866 193.11 476.226 192.76C476.586 192.4 477.101 192.155 477.771 192.025L480.591 191.455L480.576 192.73L478.776 193.09C478.436 193.16 478.176 193.255 477.996 193.375C477.826 193.485 477.741 193.67 477.741 193.93C477.741 194.18 477.831 194.37 478.011 194.5C478.201 194.63 478.426 194.695 478.686 194.695C478.896 194.695 479.101 194.67 479.301 194.62C479.501 194.57 479.681 194.49 479.841 194.38C480.001 194.27 480.126 194.12 480.216 193.93C480.306 193.74 480.351 193.51 480.351 193.24V191.215Z" fill="white"/>
<line x1="250.5" y1="21" x2="250.5" y2="224" stroke="white" stroke-width="5"/>
</g>
<defs>
<clipPath id="clip0_1_51">
<rect width="639" height="239" fill="white"/>
</clipPath>
</defs>
</svg>
