<svg width="281" height="230" viewBox="0 0 281 230" fill="none" xmlns="http://www.w3.org/2000/svg">
<rect width="281" height="230" fill="white"/>
<path d="M260.5 127L195.5 94.5C176.892 135.513 173.388 160.997 184 212.5H262C247.848 177.751 247.365 159.029 260.5 127Z" fill="#39A800" stroke="black"/>
<path d="M120 57L185.5 90C169.879 127.463 163.31 149.922 172.5 211.5H98C90.6917 145.828 95.523 112.003 120 57Z" fill="#39A800" stroke="black"/>
<g clip-path="url(#clip0_4_31)">
<path d="M214.53 164.927L214.53 164.927C213.325 164.11 212.474 162.865 212.136 161.416L211.682 161.522L212.136 161.416C211.588 159.066 212.176 156.793 213.725 155.157L213.362 154.814L213.725 155.157C215.243 153.555 217.444 152.827 219.614 153.21C221.385 153.522 222.909 154.515 223.91 156.009C224.752 157.266 226.088 158.136 227.577 158.398L228.982 158.646C229.219 158.688 229.42 158.832 229.536 159.044C229.536 159.044 229.536 159.044 229.536 159.044L230.18 160.224L230.18 160.225C230.28 160.407 230.457 160.534 230.661 160.57C231.088 160.645 231.375 161.055 231.3 161.482L231.153 162.315C231.078 162.742 230.668 163.029 230.241 162.954C230.036 162.917 229.826 162.977 229.671 163.114L228.662 164.002C228.662 164.002 228.662 164.002 228.662 164.002C228.48 164.162 228.242 164.229 228.005 164.187L226.601 163.939C225.105 163.676 223.561 164.026 222.365 164.91C221.284 165.709 220.008 166.151 218.672 166.189C217.249 166.23 215.816 165.799 214.53 164.927ZM226.74 163.35L226.653 163.843L227.145 163.929L228.023 164.084C228.228 164.12 228.437 164.061 228.593 163.924L229.602 163.035C229.783 162.876 230.021 162.809 230.259 162.851C230.63 162.916 230.985 162.668 231.05 162.297L231.197 161.464C231.263 161.093 231.015 160.738 230.643 160.673C230.405 160.631 230.204 160.486 230.089 160.274C230.089 160.274 230.089 160.274 230.089 160.274L229.444 159.094L229.444 159.094C229.345 158.912 229.168 158.785 228.963 158.749L228.086 158.594L227.594 158.507L227.507 159L226.74 163.35ZM226.098 163.77L226.553 163.808L226.632 163.359L227.409 158.954L226.917 158.867L227.049 158.385C225.74 158.026 224.583 157.2 223.824 156.067C222.839 154.599 221.336 153.619 219.596 153.312C217.461 152.936 215.293 153.653 213.801 155.229C212.923 156.156 212.361 157.294 212.143 158.529C211.981 159.449 212.01 160.418 212.237 161.392C212.568 162.81 213.402 164.036 214.589 164.841L214.589 164.841C217.045 166.506 220.012 166.519 222.303 164.826C223.377 164.032 224.736 163.657 226.098 163.77Z" fill="black" stroke="black"/>
<path d="M210.208 158.139C210.236 158.144 210.255 158.171 210.25 158.2C210.245 158.228 210.218 158.247 210.19 158.242L208.619 157.965C208.59 157.96 208.571 157.933 208.576 157.905C208.581 157.876 208.608 157.857 208.637 157.862L210.208 158.139Z" fill="black" stroke="black"/>
<path d="M213.613 152.793L213.613 152.793C213.63 152.817 213.663 152.823 213.686 152.806L213.973 153.216L213.686 152.806C213.698 152.798 213.705 152.786 213.708 152.772C213.71 152.758 213.707 152.745 213.699 152.733C213.699 152.733 213.699 152.733 213.699 152.733L212.784 151.427L212.784 151.427C212.767 151.403 212.735 151.397 212.711 151.414L213.613 152.793ZM213.613 152.793L212.698 151.487C212.698 151.487 212.698 151.487 212.698 151.487C212.682 151.463 212.688 151.43 212.711 151.414L213.613 152.793Z" fill="black" stroke="black"/>
<path d="M219.887 151.361L220.164 149.79C220.169 149.762 220.196 149.743 220.225 149.748C220.253 149.753 220.272 149.78 220.267 149.809L219.99 151.38C219.985 151.408 219.958 151.427 219.93 151.422C219.901 151.417 219.882 151.39 219.887 151.361Z" fill="black" stroke="black"/>
<path d="M227.125 153.596L226.715 153.883C226.724 153.895 226.726 153.908 226.724 153.922C226.721 153.936 226.714 153.948 226.703 153.956L225.396 154.871L225.663 155.253L225.396 154.871C225.372 154.887 225.34 154.882 225.323 154.858L225.323 154.858C225.307 154.835 225.312 154.802 225.336 154.785L225.336 154.785L226.643 153.87C226.643 153.87 226.643 153.87 226.643 153.87C226.643 153.87 226.643 153.87 226.643 153.87C226.666 153.854 226.699 153.859 226.715 153.883L227.125 153.596ZM227.125 153.596C226.95 153.347 226.606 153.286 226.356 153.461L225.049 154.376C224.799 154.551 224.739 154.895 224.914 155.145C225.088 155.395 225.433 155.455 225.683 155.28L226.989 154.365C227.114 154.278 227.192 154.148 227.216 154.009C227.241 153.87 227.212 153.721 227.125 153.596Z" fill="black" stroke="black"/>
<path d="M223.344 166.508L223.726 166.24L223.344 166.508L224.259 167.814C224.267 167.827 224.27 167.84 224.267 167.854C224.265 167.868 224.258 167.879 224.246 167.887C224.222 167.904 224.19 167.898 224.173 167.875L223.258 166.568C223.242 166.544 223.248 166.512 223.271 166.495C223.295 166.479 223.327 166.484 223.344 166.508Z" fill="black" stroke="black"/>
<path d="M216.69 169.493L216.967 167.922C216.972 167.893 216.999 167.874 217.028 167.879C217.056 167.884 217.075 167.911 217.07 167.94L216.793 169.511C216.788 169.539 216.761 169.558 216.733 169.553C216.704 169.548 216.685 169.521 216.69 169.493Z" fill="black" stroke="black"/>
<path d="M210.315 165.431L210.315 165.431C210.291 165.447 210.258 165.442 210.242 165.418C210.225 165.394 210.231 165.362 210.255 165.345L211.561 164.43C211.585 164.414 211.618 164.42 211.634 164.443L212.044 164.156L211.634 164.443C211.642 164.455 211.645 164.468 211.643 164.482C211.64 164.496 211.633 164.508 211.621 164.516C211.621 164.516 211.621 164.516 211.621 164.516L210.315 165.431Z" fill="black" stroke="black"/>
<path d="M221.682 160.27L221.683 160.27C221.709 160.273 221.734 160.255 221.74 160.229L221.74 160.229C221.747 160.201 221.73 160.172 221.701 160.165C221.701 160.165 221.701 160.165 221.701 160.165L215.835 158.757C215.816 158.752 215.795 158.749 215.782 158.747L215.782 158.747C215.551 158.721 215.341 158.887 215.315 159.119L221.682 160.27ZM221.682 160.27L215.687 159.586C215.687 159.586 215.687 159.586 215.686 159.586M221.682 160.27L215.686 159.586M215.686 159.586C215.455 159.56 215.289 159.351 215.315 159.119L215.686 159.586Z" fill="black" stroke="black"/>
<path d="M223.987 160.476C224.066 160.489 224.118 160.564 224.104 160.643C224.09 160.721 224.016 160.773 223.937 160.76C223.859 160.746 223.806 160.671 223.82 160.593C223.834 160.514 223.909 160.462 223.987 160.476Z" fill="black" stroke="black"/>
</g>
<path d="M87.5001 212.5C83.1053 175.315 83.548 157.365 87.5001 128.5L14.5001 117C9.32022 153.644 9.35511 174.644 12.0001 212.5H87.5001Z" fill="#39A800" stroke="black"/>
<path d="M45.5 19L111 52C98.9653 77.8759 93.8203 93.3516 88 123L15.5 111C22.5044 72.9134 28.9133 52.7016 45.5 19Z" fill="#39A800" stroke="black"/>
<path d="M124.487 164.127L137.637 165.277L137.45 167.409L124.301 166.259L124.487 164.127ZM138.474 158.004C138.402 158.828 138.13 159.56 137.659 160.202C137.19 160.83 136.553 161.303 135.748 161.621C134.944 161.938 134.004 162.05 132.928 161.956C131.813 161.859 130.888 161.57 130.153 161.091C129.419 160.612 128.883 160.009 128.545 159.284C128.193 158.557 128.054 157.782 128.126 156.959C128.2 156.108 128.495 155.412 129.011 154.868C129.527 154.324 130.166 153.985 130.927 153.851L131.126 154.109L124.112 153.496L124.299 151.364L138.744 152.627L138.578 154.52L135.854 154.443L135.899 154.165C136.488 154.311 136.987 154.575 137.395 154.959C137.79 155.341 138.084 155.802 138.278 156.341C138.46 156.866 138.525 157.42 138.474 158.004ZM136.801 157.396C136.851 156.825 136.747 156.321 136.491 155.884C136.235 155.446 135.851 155.091 135.34 154.819C134.828 154.547 134.2 154.378 133.457 154.313C132.766 154.253 132.165 154.314 131.654 154.497C131.129 154.678 130.716 154.963 130.415 155.352C130.114 155.727 129.94 156.18 129.894 156.712C129.816 157.602 130.061 158.319 130.629 158.864C131.197 159.409 132.019 159.728 133.095 159.823C134.171 159.917 135.042 159.752 135.708 159.328C136.361 158.904 136.725 158.26 136.801 157.396ZM139.616 144.955C139.529 145.951 139.246 146.81 138.768 147.531C138.29 148.252 137.647 148.792 136.84 149.149C136.02 149.492 135.072 149.617 133.996 149.523C132.92 149.429 132.015 149.142 131.281 148.663C130.534 148.169 129.988 147.533 129.641 146.753C129.294 145.973 129.162 145.111 129.245 144.168C129.33 143.199 129.601 142.393 130.059 141.75C130.516 141.108 131.106 140.637 131.828 140.339C132.55 140.041 133.35 139.93 134.226 140.007C134.466 140.028 134.691 140.054 134.902 140.086C135.113 140.118 135.298 140.154 135.455 140.194L134.754 148.204L133.12 148.061L133.739 140.988L133.965 142.072C133.062 141.993 132.352 142.158 131.834 142.568C131.303 142.977 131.003 143.573 130.935 144.356C130.885 144.928 130.974 145.437 131.203 145.886C131.431 146.334 131.801 146.694 132.313 146.966C132.811 147.237 133.439 147.406 134.196 147.472C134.939 147.537 135.581 147.473 136.12 147.279C136.659 147.086 137.08 146.781 137.384 146.366C137.688 145.951 137.866 145.445 137.919 144.847C137.977 144.183 137.898 143.634 137.681 143.2C137.465 142.766 137.141 142.41 136.711 142.131L137.656 140.507C138.113 140.788 138.503 141.15 138.826 141.594C139.136 142.022 139.36 142.524 139.497 143.098C139.634 143.672 139.674 144.291 139.616 144.955ZM134.149 131.485C133.485 131.427 132.957 131.568 132.566 131.909C132.163 132.235 131.933 132.717 131.877 133.354C131.825 133.952 131.92 134.475 132.161 134.925C132.403 135.374 132.828 135.726 133.434 135.98L132.52 137.707C131.732 137.383 131.124 136.835 130.697 136.062C130.27 135.275 130.108 134.297 130.211 133.128C130.28 132.331 130.475 131.639 130.794 131.051C131.1 130.462 131.527 130.018 132.075 129.718C132.624 129.404 133.304 129.283 134.114 129.354L138.557 129.743C139.049 129.786 139.316 129.561 139.359 129.07C139.38 128.831 139.367 128.595 139.321 128.364L140.784 128.612C140.904 128.931 140.943 129.322 140.903 129.787C140.865 130.212 140.759 130.591 140.582 130.924C140.394 131.242 140.138 131.487 139.815 131.66C139.48 131.818 139.08 131.876 138.615 131.836L138.476 131.823L138.494 131.383C139.002 131.548 139.412 131.832 139.725 132.234C140.024 132.635 140.239 133.089 140.369 133.595C140.485 134.101 140.521 134.606 140.477 135.11C140.422 135.735 140.273 136.29 140.03 136.778C139.788 137.252 139.455 137.617 139.031 137.875C138.594 138.118 138.077 138.213 137.48 138.161C136.736 138.096 136.146 137.803 135.709 137.283C135.274 136.75 135.009 136.031 134.914 135.126L134.496 131.194L135.988 131.345L136.32 134.205C136.378 134.772 136.494 135.204 136.669 135.5C136.843 135.796 137.123 135.961 137.509 135.995C137.88 136.028 138.192 135.914 138.442 135.655C138.68 135.381 138.82 135.005 138.862 134.527C138.891 134.195 138.879 133.873 138.826 133.561C138.774 133.235 138.673 132.938 138.522 132.671C138.358 132.402 138.143 132.189 137.875 132.032C137.596 131.86 137.257 131.757 136.859 131.722L134.149 131.485ZM141.565 122.672C141.478 123.668 141.206 124.561 140.749 125.351C140.291 126.14 139.69 126.744 138.944 127.16L137.798 125.574C138.368 125.33 138.843 124.95 139.223 124.434C139.59 123.904 139.808 123.254 139.875 122.484C139.929 121.873 139.865 121.378 139.684 121.001C139.502 120.624 139.219 120.419 138.834 120.385C138.582 120.363 138.355 120.43 138.154 120.586C137.941 120.728 137.761 121.027 137.614 121.483L136.992 123.536C136.687 124.58 136.282 125.308 135.778 125.719C135.26 126.129 134.636 126.301 133.905 126.238C133.361 126.19 132.87 125.986 132.433 125.627C131.996 125.267 131.665 124.77 131.439 124.135C131.202 123.485 131.121 122.728 131.196 121.865C131.283 120.869 131.537 120.034 131.957 119.362C132.364 118.688 132.909 118.193 133.593 117.878L134.699 119.461C134.146 119.667 133.721 120.004 133.426 120.474C133.117 120.942 132.94 121.442 132.893 121.973C132.856 122.398 132.877 122.768 132.957 123.083C133.036 123.398 133.162 123.643 133.334 123.819C133.506 123.994 133.718 124.093 133.971 124.115C134.236 124.138 134.477 124.059 134.694 123.877C134.911 123.696 135.095 123.35 135.246 122.842L135.923 120.612C136.193 119.672 136.57 119.029 137.056 118.683C137.529 118.323 138.084 118.171 138.722 118.227C139.359 118.283 139.909 118.498 140.372 118.873C140.821 119.247 141.151 119.758 141.362 120.405C141.573 121.053 141.641 121.808 141.565 122.672Z" fill="black"/>
<path d="M40.3534 189.284C40.4396 188.299 40.7544 187.539 41.2976 187.006C41.8416 186.463 42.532 186.228 43.3688 186.302C44.2335 186.377 44.8774 186.729 45.3003 187.356C45.7148 187.973 45.8789 188.774 45.7926 189.76L45.8641 189.907L45.6774 192.041L49.3594 192.363L49.23 193.841L40.0252 193.036L40.3534 189.284ZM44.6253 189.77C44.6782 189.166 44.5963 188.709 44.3798 188.4C44.1548 188.08 43.7866 187.898 43.2752 187.853C42.7732 187.809 42.3836 187.925 42.1065 188.201C41.8302 188.467 41.6657 188.902 41.6128 189.507L41.4237 191.668L44.4362 191.932L44.6253 189.77ZM45.009 188.918L49.8877 186.324L49.7376 188.039L45.4825 190.253L45.009 188.918ZM50.4228 181.814C50.3617 182.512 50.1639 183.113 49.8293 183.618C49.4947 184.122 49.0448 184.5 48.4795 184.75C47.9057 184.99 47.2422 185.078 46.4891 185.012C45.736 184.946 45.1024 184.745 44.5884 184.41C44.0658 184.064 43.6832 183.619 43.4405 183.073C43.1978 182.527 43.1054 181.924 43.1631 181.264C43.2225 180.585 43.4124 180.021 43.7328 179.571C44.0533 179.121 44.4662 178.792 44.9716 178.583C45.4771 178.374 46.0367 178.297 46.6503 178.35C46.8177 178.365 46.9753 178.384 47.1233 178.406C47.2712 178.428 47.4002 178.454 47.5101 178.482L47.0196 184.089L45.876 183.988L46.3091 179.037L46.4676 179.796C45.8354 179.741 45.3381 179.857 44.9757 180.143C44.604 180.429 44.3942 180.847 44.3462 181.395C44.3112 181.795 44.3737 182.152 44.5336 182.466C44.6935 182.779 44.9525 183.032 45.3106 183.222C45.6594 183.412 46.0988 183.53 46.6287 183.576C47.1494 183.622 47.5984 183.577 47.9757 183.441C48.3529 183.306 48.6479 183.093 48.8607 182.802C49.0735 182.512 49.1982 182.157 49.2348 181.739C49.2755 181.274 49.2201 180.889 49.0687 180.586C48.9173 180.282 48.6908 180.033 48.3893 179.838L49.0509 178.701C49.371 178.898 49.6439 179.151 49.8697 179.461C50.0871 179.761 50.2438 180.112 50.3398 180.514C50.4358 180.916 50.4634 181.35 50.4228 181.814ZM42.8194 169.933L44.0116 169.798C44.0092 169.826 44.0068 169.854 44.0043 169.882C43.9926 169.909 43.9855 169.936 43.9831 169.964C43.944 170.411 44.0119 170.759 44.1869 171.008C44.3525 171.257 44.6166 171.397 44.9792 171.429L44.581 172.125C44.2091 172.092 43.886 171.984 43.6116 171.801C43.3279 171.617 43.1149 171.373 42.9728 171.071C42.8315 170.758 42.7771 170.416 42.8096 170.044C42.8112 170.026 42.8129 170.007 42.8145 169.989C42.8161 169.97 42.8178 169.951 42.8194 169.933ZM49.9765 172.779C50.0383 172.073 50.2444 171.538 50.5947 171.175C50.9357 170.812 51.3805 170.654 51.929 170.702C52.4125 170.744 52.8128 170.934 53.13 171.271C53.4565 171.608 53.6895 172.05 53.8291 172.597C53.9695 173.133 54.01 173.741 53.9506 174.42C53.8506 175.564 53.5999 176.394 53.1986 176.912C52.7973 177.43 52.3316 177.665 51.8017 177.619C51.4298 177.586 51.1157 177.428 50.8596 177.143C50.6042 176.849 50.4856 176.384 50.5037 175.749L50.7196 175.852C50.6017 176.235 50.4253 176.538 50.1903 176.761C49.9468 176.974 49.6252 177.063 49.2254 177.028C48.8256 176.993 48.4996 176.81 48.2475 176.479C47.9954 176.148 47.8705 175.701 47.8729 175.139L48.3177 174.391L48.3031 174.558C48.3029 174.989 48.3741 175.3 48.5167 175.491C48.6593 175.681 48.8282 175.785 49.0235 175.802C49.2559 175.822 49.4352 175.754 49.5615 175.596C49.6885 175.429 49.7658 175.188 49.7935 174.871L49.9765 172.779ZM52.8349 174.322C52.8797 173.811 52.8651 173.388 52.7913 173.054C52.7276 172.711 52.6237 172.454 52.4794 172.282C52.3453 172.101 52.1853 172.003 51.9993 171.987C51.7855 171.968 51.6057 172.041 51.4601 172.207C51.3153 172.363 51.2233 172.664 51.1843 173.11L50.9879 175.355C50.9651 175.616 51.011 175.84 51.1258 176.028C51.2498 176.217 51.428 176.321 51.6604 176.342C51.9673 176.369 52.2253 176.204 52.4345 175.847C52.6437 175.491 52.7772 174.983 52.8349 174.322ZM43.8344 173.591C43.8881 172.978 44.0321 172.456 44.2664 172.027C44.5015 171.588 44.8063 171.264 45.1807 171.053C45.556 170.833 45.9808 170.743 46.4549 170.785C46.9291 170.826 47.3319 170.988 47.6633 171.27C47.9954 171.543 48.2392 171.915 48.3946 172.388C48.5508 172.851 48.6021 173.39 48.5484 174.004C48.4638 174.971 48.1849 175.696 47.7116 176.179C47.2299 176.652 46.6357 176.858 45.929 176.796C45.4549 176.754 45.0521 176.593 44.7207 176.311C44.3894 176.029 44.1456 175.656 43.9894 175.193C43.834 174.72 43.7823 174.186 43.8344 173.591ZM44.8804 173.683C44.843 174.11 44.9325 174.479 45.1491 174.788C45.3571 175.088 45.661 175.255 46.0608 175.29C46.4606 175.325 46.7936 175.213 47.0598 174.955C47.3267 174.688 47.4789 174.341 47.5163 173.913C47.5546 173.476 47.465 173.108 47.2477 172.808C47.0311 172.498 46.723 172.326 46.3232 172.291C45.9234 172.256 45.5946 172.373 45.337 172.641C45.0708 172.898 44.9186 173.246 44.8804 173.683ZM43.3002 167.81C43.2717 168.136 43.1707 168.38 42.9972 168.542C42.8152 168.695 42.5755 168.759 42.2779 168.733C41.9804 168.706 41.7599 168.603 41.6165 168.422C41.4739 168.231 41.4168 167.973 41.4453 167.648C41.473 167.332 41.5731 167.097 41.7458 166.943C41.9194 166.78 42.1549 166.712 42.4524 166.738C42.7499 166.764 42.9747 166.873 43.1266 167.064C43.27 167.245 43.3279 167.494 43.3002 167.81ZM44.5364 167.173L51.5098 167.784L51.3792 169.276L44.4059 168.666L44.5364 167.173ZM52.0853 162.811C52.0243 163.508 51.8338 164.133 51.5137 164.686C51.1937 165.239 50.7726 165.661 50.2505 165.953L49.4482 164.843C49.8473 164.672 50.1798 164.406 50.4456 164.045C50.7029 163.674 50.8551 163.219 50.9023 162.679C50.9397 162.252 50.895 161.906 50.7682 161.642C50.6414 161.378 50.4432 161.234 50.1736 161.21C49.9969 161.195 49.8382 161.242 49.6975 161.351C49.5483 161.451 49.4222 161.66 49.3194 161.979L48.8844 163.416C48.6706 164.147 48.3871 164.656 48.034 164.944C47.6716 165.231 47.2348 165.352 46.7234 165.307C46.3422 165.274 45.9986 165.131 45.6927 164.88C45.3868 164.628 45.155 164.28 44.9971 163.835C44.8308 163.38 44.7741 162.851 44.827 162.246C44.888 161.549 45.0655 160.965 45.3597 160.494C45.6446 160.022 46.0262 159.676 46.5045 159.456L47.2789 160.563C46.8916 160.708 46.5945 160.944 46.3878 161.273C46.1717 161.6 46.0474 161.95 46.0149 162.322C45.9888 162.62 46.0037 162.878 46.0593 163.099C46.115 163.319 46.203 163.491 46.3234 163.614C46.4439 163.737 46.5924 163.806 46.769 163.821C46.955 163.838 47.1238 163.782 47.2755 163.655C47.4272 163.528 47.556 163.286 47.6622 162.93L48.136 161.369C48.3247 160.711 48.5889 160.261 48.9287 160.019C49.2599 159.767 49.6486 159.661 50.0949 159.7C50.5412 159.739 50.9262 159.889 51.2499 160.152C51.5643 160.414 51.7954 160.771 51.9431 161.225C52.0908 161.678 52.1382 162.207 52.0853 162.811ZM43.5145 155.241L50.446 155.847C50.79 155.878 51.0488 155.811 51.2223 155.648C51.3967 155.476 51.4973 155.237 51.5241 154.93C51.5461 154.679 51.528 154.457 51.4699 154.265C51.4025 154.071 51.3059 153.89 51.1803 153.719L52.2974 153.48C52.4647 153.71 52.5903 153.988 52.6742 154.314C52.7496 154.63 52.7706 154.978 52.7373 155.359C52.7023 155.759 52.6051 156.121 52.4456 156.444C52.2862 156.767 52.0542 157.009 51.7497 157.17C51.4359 157.33 51.0415 157.394 50.5665 157.362L43.8023 156.77L43.5145 155.241ZM45.7745 153.022L46.9461 153.124L46.4885 158.354L45.317 158.252L45.7745 153.022ZM52.877 152.156L45.9037 151.546L46.0147 150.276L47.2821 150.247C46.8428 150.021 46.5228 149.717 46.322 149.334C46.1128 148.941 46.0318 148.474 46.079 147.935C46.0912 147.796 46.1174 147.657 46.1575 147.52C46.1883 147.383 46.231 147.269 46.2856 147.18L47.5783 147.504C47.5321 147.603 47.4941 147.717 47.4641 147.845C47.4256 147.964 47.397 148.13 47.3783 148.344C47.3531 148.632 47.4073 148.923 47.541 149.215C47.6653 149.507 47.8728 149.76 48.1634 149.973C48.4547 150.176 48.8375 150.299 49.3117 150.34L53.0076 150.663L52.877 152.156ZM46.5187 142.909C46.5781 142.23 46.7747 141.643 47.1085 141.148C47.4423 140.652 47.896 140.285 48.4698 140.044C49.0351 139.794 49.6944 139.702 50.4475 139.768C51.2006 139.834 51.8384 140.039 52.361 140.385C52.875 140.72 53.2534 141.161 53.4961 141.707C53.7388 142.253 53.8304 142.865 53.771 143.544C53.7116 144.222 53.5151 144.809 53.1813 145.305C52.8475 145.8 52.3979 146.173 51.8326 146.424C51.258 146.673 50.5942 146.765 49.841 146.699C49.0879 146.633 48.4547 146.428 47.9415 146.083C47.419 145.738 47.0363 145.292 46.7937 144.746C46.551 144.2 46.4593 143.588 46.5187 142.909ZM47.6902 143.012C47.6536 143.43 47.72 143.797 47.8892 144.111C48.0499 144.416 48.3047 144.663 48.6535 144.853C49.0022 145.042 49.4416 145.16 49.9716 145.207C50.4923 145.252 50.9455 145.212 51.3312 145.087C51.7077 144.961 52.0061 144.762 52.2266 144.491C52.4386 144.209 52.5629 143.86 52.5995 143.441C52.6361 143.023 52.574 142.661 52.4133 142.357C52.2433 142.051 51.9838 141.804 51.6351 141.614C51.277 141.424 50.8376 141.305 50.3169 141.26C49.7869 141.214 49.3337 141.254 48.9573 141.38C48.5808 141.506 48.287 141.705 48.0759 141.977C47.8554 142.248 47.7269 142.593 47.6902 143.012Z" fill="black"/>
<path d="M58.7709 93.2777C59.3125 93.5125 59.7623 93.8329 60.1202 94.239C60.4689 94.6443 60.7189 95.1065 60.8702 95.6256C61.0215 96.1448 61.0708 96.7066 61.0179 97.3109C60.9406 98.1942 60.6829 98.9446 60.2448 99.5621C59.8066 100.18 59.2188 100.634 58.4812 100.926C57.7437 101.217 56.8821 101.32 55.8965 101.234C54.911 101.147 54.0803 100.897 53.4046 100.481C52.7289 100.066 52.2289 99.5166 51.9046 98.8324C51.5803 98.1482 51.4564 97.3691 51.5329 96.4952C51.5858 95.8908 51.717 95.3542 51.9267 94.8854C52.1372 94.4072 52.4248 94.0108 52.7896 93.696C53.1545 93.3813 53.5961 93.1529 54.1144 93.0109L54.6188 94.4744C54.0539 94.6124 53.6305 94.847 53.3486 95.1784C53.0573 95.5089 52.8869 95.9578 52.8373 96.525C52.7877 97.0921 52.879 97.6013 53.1112 98.0526C53.3434 98.5039 53.7046 98.8728 54.1948 99.1593C54.6859 99.4365 55.2987 99.6072 56.0332 99.6715C56.7584 99.7349 57.3911 99.6778 57.9313 99.5002C58.4622 99.3218 58.8808 99.0352 59.1871 98.6404C59.4933 98.2456 59.672 97.7553 59.7233 97.1696C59.7729 96.6024 59.6715 96.1016 59.4191 95.6673C59.1581 95.2229 58.7425 94.8867 58.1722 94.6588L58.7709 93.2777ZM54.5119 88.1467C54.5712 87.468 54.7678 86.8809 55.1016 86.3854C55.4354 85.8899 55.8892 85.5221 56.463 85.2819C57.0283 85.0315 57.6875 84.9393 58.4406 85.0052C59.1937 85.0711 59.8316 85.2768 60.3541 85.6223C60.8682 85.9577 61.2465 86.3984 61.4892 86.9442C61.7319 87.4901 61.8235 88.1025 61.7642 88.7812C61.7048 89.4599 61.5082 90.047 61.1744 90.5425C60.8406 91.038 60.3911 91.4109 59.8258 91.6612C59.2512 91.9108 58.5873 92.0026 57.8342 91.9367C57.0811 91.8708 56.4479 91.6655 55.9346 91.3208C55.4121 90.9753 55.0295 90.5296 54.7868 89.9837C54.5441 89.4378 54.4525 88.8254 54.5119 88.1467ZM55.6834 88.2492C55.6468 88.6676 55.7131 89.0341 55.8823 89.3487C56.043 89.6532 56.2978 89.9004 56.6466 90.0902C56.9954 90.2799 57.4348 90.398 57.9647 90.4444C58.4854 90.4899 58.9386 90.45 59.3244 90.3244C59.7008 90.1981 59.9993 89.9993 60.2197 89.7282C60.4317 89.4469 60.556 89.0971 60.5926 88.6787C60.6292 88.2603 60.5672 87.8989 60.4064 87.5943C60.2364 87.289 59.977 87.0415 59.6282 86.8517C59.2701 86.6611 58.8307 86.543 58.3101 86.4975C57.7801 86.4511 57.3269 86.4911 56.9504 86.6174C56.574 86.7438 56.2802 86.9429 56.069 87.2149C55.8485 87.486 55.72 87.8308 55.6834 88.2492ZM62.0915 83.4328L55.1182 82.8228L55.2341 81.4978L56.4117 81.5306C55.9866 81.2498 55.6846 80.9001 55.5057 80.4816C55.3276 80.0538 55.2585 79.6121 55.2984 79.1565C55.3423 78.6544 55.4988 78.2044 55.7679 77.8063C56.0284 77.3981 56.3959 77.107 56.8702 76.933C56.5764 76.7574 56.3386 76.5305 56.1568 76.2523C55.975 75.974 55.8515 75.6728 55.7861 75.3485C55.7115 75.0235 55.6876 74.7075 55.7145 74.4007C55.7535 73.9544 55.8831 73.5441 56.1032 73.1699C56.3234 72.7956 56.6346 72.5043 57.037 72.2959C57.4393 72.0875 57.938 72.0094 58.5331 72.0614L63.0518 72.4568L62.9213 73.9491L58.6396 73.5745C58.0725 73.5249 57.6516 73.6239 57.3769 73.8716C57.1023 74.1192 56.9467 74.4523 56.9101 74.8707C56.8816 75.1961 56.9342 75.5052 57.0678 75.798C57.2023 76.0814 57.4203 76.3207 57.7218 76.5157C58.014 76.7099 58.3879 76.8269 58.8435 76.8668L62.637 77.1987L62.5064 78.691L58.2248 78.3164C57.6576 78.2667 57.2367 78.3658 56.9621 78.6134C56.6874 78.8611 56.5318 79.1942 56.4952 79.6126C56.4708 79.8915 56.5208 80.1769 56.6451 80.4689C56.7695 80.7608 56.9816 81.0136 57.2815 81.2272C57.5813 81.4408 57.9916 81.5704 58.5123 81.616L62.2221 81.9405L62.0915 83.4328ZM55.1708 68.7286C55.1423 69.0541 55.0413 69.2982 54.8678 69.461C54.6858 69.6137 54.446 69.6771 54.1485 69.6511C53.8509 69.625 53.6305 69.5214 53.487 69.3402C53.3444 69.1497 53.2874 68.8918 53.3158 68.5664C53.3435 68.2502 53.4437 68.0154 53.6164 67.8619C53.7899 67.699 54.0254 67.6306 54.323 67.6567C54.6205 67.6827 54.8452 67.7914 54.9971 67.9827C55.1405 68.1639 55.1984 68.4125 55.1708 68.7286ZM56.407 68.092L63.3803 68.7021L63.2498 70.1944L56.2764 69.5843L56.407 68.092ZM54.7392 63.5415L61.6707 64.1479C62.0147 64.178 62.2735 64.1117 62.447 63.9488C62.6214 63.7767 62.722 63.5372 62.7488 63.2304C62.7708 62.9794 62.7527 62.7576 62.6946 62.5651C62.6272 62.3719 62.5306 62.1901 62.405 62.0198L63.5221 61.7803C63.6894 62.0104 63.815 62.2884 63.8989 62.6143C63.9743 62.9301 63.9953 63.2786 63.962 63.6598C63.927 64.0596 63.8298 64.4211 63.6703 64.7445C63.5109 65.0678 63.2789 65.3098 62.9744 65.4706C62.6606 65.6305 62.2662 65.6944 61.7912 65.6622L55.027 65.0704L54.7392 63.5415ZM56.9992 61.322L58.1708 61.4245L57.7132 66.6545L56.5417 66.5521L56.9992 61.322ZM64.5096 57.4001C64.4486 58.0974 64.2508 58.6985 63.9162 59.2032C63.5816 59.708 63.1317 60.0855 62.5664 60.3359C61.9926 60.5761 61.3291 60.6633 60.576 60.5974C59.8229 60.5315 59.1893 60.3309 58.6752 59.9955C58.1527 59.6499 57.7701 59.2042 57.5274 58.6583C57.2847 58.1124 57.1923 57.5094 57.25 56.8493C57.3094 56.1705 57.4993 55.6063 57.8197 55.1565C58.1402 54.7067 58.5531 54.3774 59.0585 54.1687C59.564 53.96 60.1235 53.8824 60.7372 53.9361C60.9046 53.9508 61.0622 53.9692 61.2102 53.9915C61.3581 54.0139 61.4871 54.0392 61.597 54.0676L61.1065 59.6741L59.9629 59.5741L60.396 54.623L60.5545 55.3817C59.9223 55.3264 59.4249 55.4421 59.0626 55.729C58.6909 56.015 58.4811 56.4323 58.4331 56.9809C58.3981 57.3807 58.4606 57.7375 58.6205 58.0513C58.7804 58.3651 59.0394 58.6173 59.3975 58.8079C59.7463 58.9977 60.1857 59.1158 60.7156 59.1621C61.2363 59.2077 61.6853 59.1626 62.0625 59.027C62.4398 58.8914 62.7348 58.6783 62.9476 58.3877C63.1604 58.0971 63.2851 57.7427 63.3217 57.3243C63.3624 56.8594 63.307 56.4751 63.1556 56.1714C63.0041 55.8677 62.7777 55.6184 62.4762 55.4233L63.1378 54.2867C63.4579 54.4833 63.7308 54.7367 63.9566 55.0469C64.174 55.347 64.3306 55.698 64.4266 56.0999C64.5227 56.5018 64.5503 56.9352 64.5096 57.4001Z" fill="black"/>
<defs>
<clipPath id="clip0_4_31">
<rect width="24" height="24" fill="white" transform="translate(206 169.635) rotate(-80)"/>
</clipPath>
</defs>
</svg>
