<svg width="1002" height="246" viewBox="0 0 1002 246" fill="none" xmlns="http://www.w3.org/2000/svg">
<path d="M118.735 16C112.619 16.0079 106.757 18.5059 102.437 22.9447C98.1174 27.3835 95.6941 33.3996 95.7003 39.67C95.7056 45.9403 98.1399 51.9517 102.468 56.3822C106.796 60.8126 112.663 63.2993 118.779 63.2954C124.894 63.2922 130.758 60.7991 135.081 56.3643C139.404 51.9295 141.832 45.916 141.831 39.6462V39.6017C141.82 33.3319 139.38 27.3234 135.048 22.8975C130.717 18.4716 124.848 15.9906 118.732 16H118.735ZM42.6446 70.6204C38.5917 70.6442 34.4693 70.8757 30.6046 71.8729C28.057 72.5348 25.5934 73.6241 23.9925 75.3159C21.9834 77.435 21.7258 80.311 22.7072 82.7656C23.5814 84.9322 25.9379 86.5528 28.5636 87.4818C34.2088 89.4644 40.4821 89.8858 46.4196 91.1324C47.5139 91.4084 48.724 91.7112 49.4014 92.4769C50.1049 93.3881 49.6909 94.6436 48.5358 95.2164C46.6078 96.2226 44.1442 96.2285 41.8977 96.1959C39.8481 96.1068 37.5958 95.9317 35.9631 94.8781C34.7646 94.1212 34.5533 92.8331 34.8225 91.726H21.5926C21.5579 93.7918 21.9487 95.9495 23.4251 97.7214C24.6583 99.2351 26.6501 100.304 28.7923 100.945C32.217 101.978 35.9255 102.289 39.576 102.384C44.5292 102.47 49.5809 102.319 54.3402 101.167C57.1772 100.458 59.9622 99.3123 61.7802 97.4543C65.0023 94.136 64.2438 88.8797 59.9564 86.3005C57.8228 85.0242 55.2666 84.2347 52.6611 83.7242C48.8485 82.914 44.9664 82.3204 41.1045 81.6674C39.7468 81.3973 38.3138 81.1569 37.1732 80.501C35.9805 79.845 35.8849 78.2957 37.1008 77.622C38.6728 76.7108 40.7658 76.7168 42.6475 76.7168C44.6306 76.7524 46.7873 76.88 48.42 77.8327C48.8138 78.0526 49.142 78.3781 49.3694 78.7744C49.5968 79.1706 49.7149 79.6227 49.7112 80.0825L62.2897 80.0528C62.2405 78.4204 61.9452 76.7197 60.7815 75.3099C59.4295 73.5736 57.0528 72.4784 54.6065 71.8373C50.7707 70.843 46.6744 70.6383 42.6475 70.6204H42.6446ZM69.9324 71.594L69.9266 102.408H106.606V95.6913H83.3794V89.7107H104.093V83.1425H83.3794L83.3765 78.2393L105.766 78.2334L105.751 71.594H69.9324ZM130.364 71.6058L113.365 71.6088L113.362 102.423H126.239L126.233 81.6882L143.872 102.408L161.546 102.426L161.54 71.6088L148.652 71.6118L148.666 92.1979L130.364 71.6058ZM184.506 71.6563C184.506 71.6563 170.624 92.2128 163.65 102.476H177.167L180.409 96.9171H201.293L204.321 102.479L219.335 102.476L199.438 71.6622L184.506 71.6563ZM191.262 79.011L197.672 90.1737L184.422 90.1945L191.262 79.011ZM11 111.125L11.1158 127.894L72.257 127.675C75.3749 128.36 77.1842 130.444 76.5473 135.172L38.942 202.662L51.1934 214.4L109.434 111.122L11 111.125ZM127.666 111.267L184.94 214.106L197.596 202.442L159.557 135.13C158.92 130.384 160.729 128.28 163.85 127.592L225 127.814L224.983 111.318L127.666 111.267ZM118.003 128.283L64.293 222.803L78.5593 229.929L114.399 167.826C115.635 166.79 116.885 166.241 118.133 166.188C119.453 166.137 120.788 166.636 122.125 167.707L157.881 230L172.596 222.129L118.003 128.283Z" fill="white"/>
<path d="M320.036 65.9C326.382 65.9 331.369 67.43 334.996 70.49C338.622 73.55 340.436 77.6583 340.436 82.815C340.436 88.3117 338.622 92.5333 334.996 95.48C331.369 98.37 326.411 99.815 320.121 99.815L318.931 100.495H306.861V122H295.301V65.9H320.036ZM318.676 91.57C321.962 91.57 324.399 90.9183 325.986 89.615C327.629 88.255 328.451 86.1867 328.451 83.41C328.451 80.6333 327.629 78.5933 325.986 77.29C324.399 75.93 321.962 75.25 318.676 75.25H306.861V91.57H318.676ZM325.561 94.035L343.751 122H330.576L315.531 97.435L325.561 94.035ZM369.924 122.85C365.447 122.85 361.537 121.972 358.194 120.215C354.907 118.458 352.357 115.937 350.544 112.65C348.731 109.363 347.824 105.397 347.824 100.75C347.824 96.1033 348.731 92.1367 350.544 88.85C352.357 85.5633 354.879 83.0417 358.109 81.285C361.396 79.5283 365.136 78.65 369.329 78.65C373.636 78.65 377.291 79.5283 380.294 81.285C383.297 82.985 385.592 85.3367 387.179 88.34C388.766 91.2867 389.559 94.6583 389.559 98.455C389.559 99.5883 389.531 100.665 389.474 101.685C389.417 102.705 389.332 103.612 389.219 104.405H355.304V96.33H384.119L378.509 98.37C378.509 94.8 377.687 92.0517 376.044 90.125C374.457 88.1983 372.191 87.235 369.244 87.235C367.091 87.235 365.221 87.745 363.634 88.765C362.104 89.785 360.942 91.315 360.149 93.355C359.356 95.3383 358.959 97.86 358.959 100.92C358.959 103.923 359.384 106.417 360.234 108.4C361.141 110.327 362.387 111.772 363.974 112.735C365.617 113.698 367.572 114.18 369.839 114.18C372.332 114.18 374.344 113.698 375.874 112.735C377.404 111.772 378.594 110.44 379.444 108.74L388.709 112.31C387.802 114.52 386.414 116.418 384.544 118.005C382.731 119.592 380.549 120.81 377.999 121.66C375.506 122.453 372.814 122.85 369.924 122.85ZM414.643 122.85C411.129 122.85 407.984 121.972 405.208 120.215C402.488 118.458 400.334 115.937 398.748 112.65C397.218 109.363 396.453 105.425 396.453 100.835C396.453 96.1317 397.274 92.1367 398.918 88.85C400.561 85.5067 402.771 82.985 405.548 81.285C408.381 79.5283 411.554 78.65 415.068 78.65C418.808 78.65 421.896 79.7267 424.333 81.88C426.769 84.0333 428.356 86.81 429.093 90.21L427.988 91.57V60.885H439.633V122H429.178L428.413 109.08L429.858 109.76C429.461 112.423 428.554 114.747 427.138 116.73C425.721 118.657 423.936 120.158 421.783 121.235C419.629 122.312 417.249 122.85 414.643 122.85ZM418.043 113.925C420.083 113.925 421.839 113.415 423.313 112.395C424.786 111.318 425.919 109.76 426.713 107.72C427.563 105.68 427.988 103.243 427.988 100.41C427.988 97.69 427.591 95.395 426.798 93.525C426.004 91.5983 424.871 90.125 423.398 89.105C421.924 88.085 420.196 87.575 418.213 87.575C415.039 87.575 412.546 88.7083 410.733 90.975C408.976 93.185 408.098 96.4433 408.098 100.75C408.098 105.057 408.976 108.343 410.733 110.61C412.489 112.82 414.926 113.925 418.043 113.925ZM519.967 65.9V75.335H501.182V122H489.452V75.335H470.582V65.9H519.967ZM538.848 122.85C534.371 122.85 530.461 121.972 527.118 120.215C523.831 118.458 521.281 115.937 519.468 112.65C517.655 109.363 516.748 105.397 516.748 100.75C516.748 96.1033 517.655 92.1367 519.468 88.85C521.281 85.5633 523.803 83.0417 527.033 81.285C530.32 79.5283 534.06 78.65 538.253 78.65C542.56 78.65 546.215 79.5283 549.218 81.285C552.221 82.985 554.516 85.3367 556.103 88.34C557.69 91.2867 558.483 94.6583 558.483 98.455C558.483 99.5883 558.455 100.665 558.398 101.685C558.341 102.705 558.256 103.612 558.143 104.405H524.228V96.33H553.043L547.433 98.37C547.433 94.8 546.611 92.0517 544.968 90.125C543.381 88.1983 541.115 87.235 538.168 87.235C536.015 87.235 534.145 87.745 532.558 88.765C531.028 89.785 529.866 91.315 529.073 93.355C528.28 95.3383 527.883 97.86 527.883 100.92C527.883 103.923 528.308 106.417 529.158 108.4C530.065 110.327 531.311 111.772 532.898 112.735C534.541 113.698 536.496 114.18 538.763 114.18C541.256 114.18 543.268 113.698 544.798 112.735C546.328 111.772 547.518 110.44 548.368 108.74L557.633 112.31C556.726 114.52 555.338 116.418 553.468 118.005C551.655 119.592 549.473 120.81 546.923 121.66C544.43 122.453 541.738 122.85 538.848 122.85ZM586.797 78.65C590.593 78.65 593.795 79.2167 596.402 80.35C599.065 81.4267 601.19 82.9283 602.777 84.855C604.42 86.725 605.582 88.8217 606.262 91.145L595.382 95.055C594.815 92.505 593.852 90.5783 592.492 89.275C591.132 87.9717 589.29 87.32 586.967 87.32C584.813 87.32 582.972 87.83 581.442 88.85C579.912 89.8133 578.75 91.315 577.957 93.355C577.163 95.3383 576.767 97.8317 576.767 100.835C576.767 103.838 577.163 106.332 577.957 108.315C578.807 110.298 579.997 111.772 581.527 112.735C583.113 113.698 584.955 114.18 587.052 114.18C588.752 114.18 590.197 113.897 591.387 113.33C592.577 112.707 593.54 111.828 594.277 110.695C595.07 109.562 595.608 108.202 595.892 106.615L606.432 110.015C605.808 112.565 604.647 114.803 602.947 116.73C601.247 118.657 599.065 120.158 596.402 121.235C593.738 122.312 590.65 122.85 587.137 122.85C582.773 122.85 578.92 121.972 575.577 120.215C572.233 118.458 569.655 115.937 567.842 112.65C566.028 109.363 565.122 105.397 565.122 100.75C565.122 96.1033 566.028 92.1367 567.842 88.85C569.655 85.5633 572.205 83.0417 575.492 81.285C578.778 79.5283 582.547 78.65 586.797 78.65ZM614.63 122V79.5H625.085L625.765 92.25L624.32 90.89C625 88.1133 626.077 85.8183 627.55 84.005C629.024 82.1917 630.809 80.86 632.905 80.01C635.059 79.1033 637.41 78.65 639.96 78.65C642.907 78.65 645.514 79.2167 647.78 80.35C650.104 81.4833 651.917 83.2117 653.22 85.535C654.58 87.8017 655.26 90.6633 655.26 94.12V122H643.615V97.435C643.615 93.8083 642.907 91.315 641.49 89.955C640.074 88.5383 638.232 87.83 635.965 87.83C634.379 87.83 632.82 88.2267 631.29 89.02C629.817 89.7567 628.599 90.975 627.635 92.675C626.729 94.375 626.275 96.6417 626.275 99.475V122H614.63ZM685.787 78.65C690.094 78.65 693.862 79.5283 697.092 81.285C700.379 83.0417 702.929 85.5633 704.742 88.85C706.612 92.1367 707.547 96.1033 707.547 100.75C707.547 105.34 706.612 109.307 704.742 112.65C702.929 115.937 700.379 118.458 697.092 120.215C693.862 121.972 690.094 122.85 685.787 122.85C681.537 122.85 677.769 121.972 674.482 120.215C671.196 118.458 668.617 115.937 666.747 112.65C664.934 109.307 664.027 105.34 664.027 100.75C664.027 96.1033 664.934 92.1367 666.747 88.85C668.617 85.5633 671.196 83.0417 674.482 81.285C677.769 79.5283 681.537 78.65 685.787 78.65ZM685.787 87.32C683.634 87.32 681.792 87.83 680.262 88.85C678.789 89.8133 677.656 91.2867 676.862 93.27C676.069 95.2533 675.672 97.7467 675.672 100.75C675.672 103.753 676.069 106.247 676.862 108.23C677.656 110.213 678.789 111.715 680.262 112.735C681.792 113.698 683.634 114.18 685.787 114.18C687.884 114.18 689.669 113.698 691.142 112.735C692.672 111.715 693.834 110.213 694.627 108.23C695.421 106.247 695.817 103.753 695.817 100.75C695.817 97.7467 695.421 95.2533 694.627 93.27C693.834 91.2867 692.672 89.8133 691.142 88.85C689.669 87.83 687.884 87.32 685.787 87.32ZM716.441 139.85V79.5H726.896L727.661 93.015L726.216 91.485C726.726 88.9917 727.661 86.7817 729.021 84.855C730.438 82.9283 732.223 81.4267 734.376 80.35C736.529 79.2167 738.938 78.65 741.601 78.65C745.058 78.65 748.146 79.5283 750.866 81.285C753.586 83.0417 755.711 85.5633 757.241 88.85C758.828 92.08 759.621 96.0183 759.621 100.665C759.621 105.312 758.828 109.307 757.241 112.65C755.654 115.937 753.473 118.458 750.696 120.215C747.976 121.972 744.859 122.85 741.346 122.85C737.606 122.85 734.489 121.802 731.996 119.705C729.559 117.608 727.888 114.973 726.981 111.8L728.086 110.015V139.85H716.441ZM737.946 113.925C741.063 113.925 743.499 112.82 745.256 110.61C747.069 108.343 747.976 105.057 747.976 100.75C747.976 96.4433 747.098 93.185 745.341 90.975C743.641 88.7083 741.233 87.575 738.116 87.575C736.133 87.575 734.376 88.1133 732.846 89.19C731.373 90.21 730.211 91.7117 729.361 93.695C728.511 95.6217 728.086 97.9733 728.086 100.75C728.086 103.47 728.483 105.822 729.276 107.805C730.069 109.788 731.203 111.318 732.676 112.395C734.206 113.415 735.963 113.925 737.946 113.925ZM792.858 94.885C792.858 92.4483 792.15 90.55 790.733 89.19C789.373 87.83 787.56 87.15 785.293 87.15C783.196 87.15 781.355 87.6883 779.768 88.765C778.181 89.8417 777.02 91.6267 776.283 94.12L766.338 91.06C767.301 87.32 769.398 84.3167 772.628 82.05C775.915 79.7833 780.306 78.65 785.803 78.65C789.543 78.65 792.801 79.245 795.578 80.435C798.355 81.5683 800.508 83.2967 802.038 85.62C803.625 87.9433 804.418 90.8617 804.418 94.375V111.63C804.418 113.783 805.438 114.86 807.478 114.86C808.441 114.86 809.348 114.718 810.198 114.435L809.518 121.66C808.045 122.397 806.203 122.765 803.993 122.765C802.01 122.765 800.225 122.425 798.638 121.745C797.051 121.065 795.805 120.045 794.898 118.685C793.991 117.268 793.538 115.512 793.538 113.415V113.075L795.578 112.735C795.238 114.888 794.303 116.73 792.773 118.26C791.243 119.733 789.373 120.867 787.163 121.66C785.01 122.453 782.771 122.85 780.448 122.85C777.558 122.85 775.065 122.425 772.968 121.575C770.871 120.668 769.256 119.365 768.123 117.665C766.99 115.965 766.423 113.868 766.423 111.375C766.423 108.202 767.443 105.623 769.483 103.64C771.523 101.6 774.441 100.212 778.238 99.475L794.218 96.245L794.133 103.47L783.933 105.51C782.006 105.907 780.533 106.445 779.513 107.125C778.55 107.748 778.068 108.797 778.068 110.27C778.068 111.687 778.578 112.763 779.598 113.5C780.675 114.237 781.95 114.605 783.423 114.605C784.613 114.605 785.775 114.463 786.908 114.18C788.041 113.897 789.061 113.443 789.968 112.82C790.875 112.197 791.583 111.347 792.093 110.27C792.603 109.193 792.858 107.89 792.858 106.36V94.885ZM816.592 122V79.5H826.707L827.472 87.83C828.605 84.8833 830.248 82.6167 832.402 81.03C834.612 79.4433 837.36 78.65 840.647 78.65C841.61 78.65 842.488 78.735 843.282 78.905C844.075 79.075 844.727 79.3017 845.237 79.585L843.877 89.36C843.31 89.1333 842.602 88.9633 841.752 88.85C840.958 88.7367 839.91 88.68 838.607 88.68C836.907 88.68 835.263 89.105 833.677 89.955C832.09 90.7483 830.787 91.995 829.767 93.695C828.747 95.3383 828.237 97.435 828.237 99.985V122H816.592ZM880.181 139.85V108.74L881.541 110.27C881.144 112.82 880.266 115.03 878.906 116.9C877.546 118.77 875.818 120.243 873.721 121.32C871.681 122.34 869.386 122.85 866.836 122.85C863.323 122.85 860.178 121.972 857.401 120.215C854.681 118.458 852.528 115.937 850.941 112.65C849.411 109.307 848.646 105.312 848.646 100.665C848.646 95.9617 849.439 91.995 851.026 88.765C852.669 85.4783 854.908 82.985 857.741 81.285C860.574 79.5283 863.748 78.65 867.261 78.65C869.868 78.65 872.219 79.2167 874.316 80.35C876.413 81.4267 878.141 82.985 879.501 85.025C880.861 87.0083 881.739 89.3033 882.136 91.91L880.606 92.76L881.371 79.5H891.826V139.85H880.181ZM870.236 113.925C872.276 113.925 874.033 113.415 875.506 112.395C876.979 111.318 878.113 109.788 878.906 107.805C879.756 105.765 880.181 103.357 880.181 100.58C880.181 97.7467 879.756 95.3667 878.906 93.44C878.113 91.5133 876.979 90.0683 875.506 89.105C874.033 88.085 872.304 87.575 870.321 87.575C867.204 87.575 864.739 88.7083 862.926 90.975C861.169 93.185 860.291 96.4433 860.291 100.75C860.291 105.057 861.169 108.343 862.926 110.61C864.683 112.82 867.119 113.925 870.236 113.925ZM918.002 122.85C915.169 122.85 912.619 122.34 910.352 121.32C908.085 120.3 906.272 118.685 904.912 116.475C903.609 114.208 902.957 111.29 902.957 107.72V79.5H914.602V104.915C914.602 108.202 915.282 110.497 916.642 111.8C918.002 113.047 919.957 113.67 922.507 113.67C923.697 113.67 924.859 113.472 925.992 113.075C927.125 112.622 928.117 111.942 928.967 111.035C929.874 110.128 930.582 108.967 931.092 107.55C931.602 106.077 931.857 104.348 931.857 102.365V79.5H943.502V122H933.132L932.707 114.605C931.29 117.438 929.335 119.535 926.842 120.895C924.405 122.198 921.459 122.85 918.002 122.85ZM974.626 122.85C970.149 122.85 966.239 121.972 962.896 120.215C959.609 118.458 957.059 115.937 955.246 112.65C953.432 109.363 952.526 105.397 952.526 100.75C952.526 96.1033 953.432 92.1367 955.246 88.85C957.059 85.5633 959.581 83.0417 962.811 81.285C966.097 79.5283 969.837 78.65 974.031 78.65C978.337 78.65 981.992 79.5283 984.996 81.285C987.999 82.985 990.294 85.3367 991.881 88.34C993.467 91.2867 994.261 94.6583 994.261 98.455C994.261 99.5883 994.232 100.665 994.176 101.685C994.119 102.705 994.034 103.612 993.921 104.405H960.006V96.33H988.821L983.211 98.37C983.211 94.8 982.389 92.0517 980.746 90.125C979.159 88.1983 976.892 87.235 973.946 87.235C971.792 87.235 969.922 87.745 968.336 88.765C966.806 89.785 965.644 91.315 964.851 93.355C964.057 95.3383 963.661 97.86 963.661 100.92C963.661 103.923 964.086 106.417 964.936 108.4C965.842 110.327 967.089 111.772 968.676 112.735C970.319 113.698 972.274 114.18 974.541 114.18C977.034 114.18 979.046 113.698 980.576 112.735C982.106 111.772 983.296 110.44 984.146 108.74L993.411 112.31C992.504 114.52 991.116 116.418 989.246 118.005C987.432 119.592 985.251 120.81 982.701 121.66C980.207 122.453 977.516 122.85 974.626 122.85Z" fill="white"/>
<path d="M343.153 185.35C342.203 188.55 340.703 191.225 338.653 193.375C336.603 195.525 334.178 197.125 331.378 198.175C328.578 199.225 325.503 199.75 322.153 199.75C317.253 199.75 313.003 198.725 309.403 196.675C305.853 194.625 303.103 191.7 301.153 187.9C299.253 184.1 298.303 179.55 298.303 174.25C298.303 168.95 299.253 164.4 301.153 160.6C303.103 156.8 305.853 153.875 309.403 151.825C313.003 149.775 317.203 148.75 322.003 148.75C325.403 148.75 328.478 149.225 331.228 150.175C333.978 151.075 336.303 152.475 338.203 154.375C340.153 156.275 341.578 158.675 342.478 161.575L333.103 165.55C332.253 162.55 330.953 160.425 329.203 159.175C327.453 157.875 325.203 157.225 322.453 157.225C319.753 157.225 317.378 157.875 315.328 159.175C313.328 160.475 311.778 162.4 310.678 164.95C309.578 167.45 309.028 170.55 309.028 174.25C309.028 177.9 309.528 181 310.528 183.55C311.578 186.1 313.103 188.025 315.103 189.325C317.103 190.625 319.553 191.275 322.453 191.275C325.153 191.275 327.478 190.55 329.428 189.1C331.428 187.65 332.828 185.45 333.628 182.5L343.153 185.35ZM365.774 160.75C369.574 160.75 372.899 161.525 375.749 163.075C378.649 164.625 380.899 166.85 382.499 169.75C384.149 172.65 384.974 176.15 384.974 180.25C384.974 184.3 384.149 187.8 382.499 190.75C380.899 193.65 378.649 195.875 375.749 197.425C372.899 198.975 369.574 199.75 365.774 199.75C362.024 199.75 358.699 198.975 355.799 197.425C352.899 195.875 350.624 193.65 348.974 190.75C347.374 187.8 346.574 184.3 346.574 180.25C346.574 176.15 347.374 172.65 348.974 169.75C350.624 166.85 352.899 164.625 355.799 163.075C358.699 161.525 362.024 160.75 365.774 160.75ZM365.774 168.4C363.874 168.4 362.249 168.85 360.899 169.75C359.599 170.6 358.599 171.9 357.899 173.65C357.199 175.4 356.849 177.6 356.849 180.25C356.849 182.9 357.199 185.1 357.899 186.85C358.599 188.6 359.599 189.925 360.899 190.825C362.249 191.675 363.874 192.1 365.774 192.1C367.624 192.1 369.199 191.675 370.499 190.825C371.849 189.925 372.874 188.6 373.574 186.85C374.274 185.1 374.624 182.9 374.624 180.25C374.624 177.6 374.274 175.4 373.574 173.65C372.874 171.9 371.849 170.6 370.499 169.75C369.199 168.85 367.624 168.4 365.774 168.4ZM401.446 145.075V187.45C401.446 189.2 401.746 190.425 402.346 191.125C402.946 191.825 403.946 192.175 405.346 192.175C406.196 192.175 406.896 192.125 407.446 192.025C407.996 191.875 408.696 191.675 409.546 191.425L408.646 198.175C407.796 198.675 406.721 199.05 405.421 199.3C404.171 199.6 402.921 199.75 401.671 199.75C398.021 199.75 395.346 198.875 393.646 197.125C391.996 195.325 391.171 192.475 391.171 188.575V145.075H401.446ZM430.122 160.75C433.922 160.75 437.247 161.525 440.097 163.075C442.997 164.625 445.247 166.85 446.847 169.75C448.497 172.65 449.322 176.15 449.322 180.25C449.322 184.3 448.497 187.8 446.847 190.75C445.247 193.65 442.997 195.875 440.097 197.425C437.247 198.975 433.922 199.75 430.122 199.75C426.372 199.75 423.047 198.975 420.147 197.425C417.247 195.875 414.972 193.65 413.322 190.75C411.722 187.8 410.922 184.3 410.922 180.25C410.922 176.15 411.722 172.65 413.322 169.75C414.972 166.85 417.247 164.625 420.147 163.075C423.047 161.525 426.372 160.75 430.122 160.75ZM430.122 168.4C428.222 168.4 426.597 168.85 425.247 169.75C423.947 170.6 422.947 171.9 422.247 173.65C421.547 175.4 421.197 177.6 421.197 180.25C421.197 182.9 421.547 185.1 422.247 186.85C422.947 188.6 423.947 189.925 425.247 190.825C426.597 191.675 428.222 192.1 430.122 192.1C431.972 192.1 433.547 191.675 434.847 190.825C436.197 189.925 437.222 188.6 437.922 186.85C438.622 185.1 438.972 182.9 438.972 180.25C438.972 177.6 438.622 175.4 437.922 173.65C437.222 171.9 436.197 170.6 434.847 169.75C433.547 168.85 431.972 168.4 430.122 168.4ZM455.669 199V161.5H464.894L465.269 168.25C466.519 165.75 468.219 163.875 470.369 162.625C472.569 161.375 474.994 160.75 477.644 160.75C480.344 160.75 482.769 161.375 484.919 162.625C487.119 163.875 488.769 165.725 489.869 168.175C490.669 166.525 491.744 165.15 493.094 164.05C494.444 162.95 495.944 162.125 497.594 161.575C499.244 161.025 500.919 160.75 502.619 160.75C505.069 160.75 507.294 161.25 509.294 162.25C511.344 163.25 512.969 164.75 514.169 166.75C515.369 168.75 515.969 171.3 515.969 174.4V199H505.694V176.425C505.694 173.675 505.094 171.725 503.894 170.575C502.694 169.425 501.144 168.85 499.244 168.85C497.744 168.85 496.344 169.225 495.044 169.975C493.794 170.725 492.794 171.85 492.044 173.35C491.344 174.8 490.994 176.625 490.994 178.825V199H480.719V176.425C480.719 173.675 480.094 171.725 478.844 170.575C477.644 169.425 476.094 168.85 474.194 168.85C472.894 168.85 471.594 169.2 470.294 169.9C469.044 170.6 467.994 171.7 467.144 173.2C466.344 174.7 465.944 176.675 465.944 179.125V199H455.669ZM546.367 199.75C544.067 199.75 541.967 199.275 540.067 198.325C538.217 197.325 536.667 195.975 535.417 194.275C534.217 192.525 533.392 190.575 532.942 188.425L533.992 187.075L533.392 199H524.317V145.075H534.592V172.075L533.617 170.5C534.417 167.7 535.942 165.375 538.192 163.525C540.442 161.675 543.267 160.75 546.667 160.75C549.617 160.75 552.292 161.525 554.692 163.075C557.092 164.625 558.967 166.85 560.317 169.75C561.717 172.65 562.417 176.175 562.417 180.325C562.417 184.375 561.717 187.85 560.317 190.75C558.967 193.65 557.067 195.875 554.617 197.425C552.217 198.975 549.467 199.75 546.367 199.75ZM543.292 191.875C546.042 191.875 548.192 190.9 549.742 188.95C551.342 186.95 552.142 184.05 552.142 180.25C552.142 176.45 551.367 173.575 549.817 171.625C548.267 169.625 546.117 168.625 543.367 168.625C541.567 168.625 540.017 169.1 538.717 170.05C537.417 171 536.392 172.35 535.642 174.1C534.942 175.85 534.592 177.925 534.592 180.325C534.592 182.775 534.942 184.875 535.642 186.625C536.392 188.325 537.417 189.625 538.717 190.525C540.067 191.425 541.592 191.875 543.292 191.875ZM574.264 156.1C572.114 156.1 570.514 155.65 569.464 154.75C568.414 153.8 567.889 152.425 567.889 150.625C567.889 148.775 568.414 147.4 569.464 146.5C570.514 145.55 572.114 145.075 574.264 145.075C576.414 145.075 578.014 145.55 579.064 146.5C580.114 147.4 580.639 148.775 580.639 150.625C580.639 152.425 580.114 153.8 579.064 154.75C578.014 155.65 576.414 156.1 574.264 156.1ZM579.364 161.5V199H569.089V161.5H579.364ZM609.381 175.075C609.381 172.925 608.756 171.25 607.506 170.05C606.306 168.85 604.706 168.25 602.706 168.25C600.856 168.25 599.231 168.725 597.831 169.675C596.431 170.625 595.406 172.2 594.756 174.4L585.981 171.7C586.831 168.4 588.681 165.75 591.531 163.75C594.431 161.75 598.306 160.75 603.156 160.75C606.456 160.75 609.331 161.275 611.781 162.325C614.231 163.325 616.131 164.85 617.481 166.9C618.881 168.95 619.581 171.525 619.581 174.625V189.85C619.581 191.75 620.481 192.7 622.281 192.7C623.131 192.7 623.931 192.575 624.681 192.325L624.081 198.7C622.781 199.35 621.156 199.675 619.206 199.675C617.456 199.675 615.881 199.375 614.481 198.775C613.081 198.175 611.981 197.275 611.181 196.075C610.381 194.825 609.981 193.275 609.981 191.425V191.125L611.781 190.825C611.481 192.725 610.656 194.35 609.306 195.7C607.956 197 606.306 198 604.356 198.7C602.456 199.4 600.481 199.75 598.431 199.75C595.881 199.75 593.681 199.375 591.831 198.625C589.981 197.825 588.556 196.675 587.556 195.175C586.556 193.675 586.056 191.825 586.056 189.625C586.056 186.825 586.956 184.55 588.756 182.8C590.556 181 593.131 179.775 596.481 179.125L610.581 176.275L610.506 182.65L601.506 184.45C599.806 184.8 598.506 185.275 597.606 185.875C596.756 186.425 596.331 187.35 596.331 188.65C596.331 189.9 596.781 190.85 597.681 191.5C598.631 192.15 599.756 192.475 601.056 192.475C602.106 192.475 603.131 192.35 604.131 192.1C605.131 191.85 606.031 191.45 606.831 190.9C607.631 190.35 608.256 189.6 608.706 188.65C609.156 187.7 609.381 186.55 609.381 185.2V175.075Z" fill="white"/>
<line x1="250.5" y1="21" x2="250.5" y2="224" stroke="white" stroke-width="5"/>
</svg>
