<svg id="Capa_1" data-name="Capa 1" xmlns="http://www.w3.org/2000/svg" xmlns:xlink="http://www.w3.org/1999/xlink" viewBox="0 0 534.35 521"><defs><style>.cls-1{fill:none;}.cls-2{clip-path:url(#clip-path);}.cls-3{fill:#ff6b00;fill-rule:evenodd;}</style><clipPath id="clip-path" transform="translate(-272.83 -279.5)"><rect class="cls-1" width="1080" height="1080"/></clipPath></defs><title>SIMBOLO SENA tecnoparque_nodovalledupar</title><g class="cls-2"><path class="cls-3" d="M541.32,279.5c31.67,0,57.47,26,57.47,57.79s-25.8,57.78-57.47,57.78-57.44-26-57.44-57.78,25.82-57.79,57.44-57.79" transform="translate(-272.83 -279.5)"/><path class="cls-3" d="M332.09,466v.22a11.21,11.21,0,0,0-.28,2.12c0,3,1.7,5.19,5.07,6.66s8.68,2.17,15.8,2.17c5.42,0,9.65-.59,12.73-1.79s4.64-2.83,4.64-4.91c0-3.16-6.11-5.7-18.25-7.69-1.43-.23-2.51-.41-3.19-.5s-1.92-.34-3.42-.58q-29-4.74-37.22-10.28a19,19,0,0,1-6.09-6.4,17.26,17.26,0,0,1-2-8.28q0-11.36,13.32-17.26t38.95-5.92q25.33,0,37.55,5.54t12.2,17.09v.89h-32v-.34c0-2.67-1.61-4.64-4.83-6s-8-2.06-14.24-2.06c-4.83,0-8.6.47-11.2,1.45s-3.95,2.36-3.95,4.14c0,3.21,7,5.91,20.93,8.17l6.3,1q14.91,2.49,21.22,4.29a54.39,54.39,0,0,1,10.9,4.23A21.26,21.26,0,0,1,402.9,459a16.7,16.7,0,0,1,2.79,9.35q0,11.69-14.51,18t-41.74,6.29q-26.91,0-39-6c-8-4-12-10.5-12-19.41V466Zm87.63,25.3V414.7h91.2v16.52H454v12.19h52.65v16.31H454v14.86h59.09v16.71Zm107.66,0V414.7h43.34l46.39,51.4V414.7H650v76.59H605.06l-44.89-51.56v51.56Zm211.08-30.54-16.38-27.84-17.33,27.84Zm-52.17,30.54H651.94l53-76.59h38l50.58,76.59H755.39l-7.73-13.82H694.55Z" transform="translate(-272.83 -279.5)"/><path class="cls-3" d="M374.19,761.33l-30.6-28.76L436.73,571a13.23,13.23,0,0,0-11.47-19.83H272.83V510.7H518.19Z" transform="translate(-272.83 -279.5)"/><path class="cls-3" d="M705.81,761.33l30.6-28.76L643.26,571a13.23,13.23,0,0,1,11.47-19.83H807.17V510.7H561.81Z" transform="translate(-272.83 -279.5)"/><path class="cls-3" d="M539.66,553.44l.34-.58L678.26,781.4l-36.72,19.1L552.46,651.29a13.5,13.5,0,0,0-23.21,0L440.73,800.5l-35.94-17.78L539.66,553.44" transform="translate(-272.83 -279.5)"/></g></svg>